<?xml version="1.0" standalone="no"?><!DOCTYPE svg PUBLIC "-//W3C//DTD SVG 1.1//EN" "http://www.w3.org/Graphics/SVG/1.1/DTD/svg11.dtd"><svg t="1737017031980" class="icon" viewBox="0 0 3987 1024" version="1.1" xmlns="http://www.w3.org/2000/svg" p-id="4367" xmlns:xlink="http://www.w3.org/1999/xlink" width="778.7109375" height="200"><path d="M490.354336 879.249843h-47.180734V633.298009h47.180734z m-46.602145-245.996836l-0.578589-152.316818h47.180734l-0.192863 152.509681z m-0.578589 245.996836h-47.187163v-153.133271H92.818563v153.133271H0V480.936189h92.818563v152.36182h350.361468v245.951834z m0-398.313654h-47.187163v152.509681l47.765752-0.192863z m535.207855 196.443887c32.47814 20.109189 48.730067 50.787273 48.730067 92.034253 0 29.906632-9.540293 55.171693-28.620878 75.795184-20.62349 22.693554-48.472916 34.033902-83.535421 34.033901H778.459607v-92.805705h136.502046c13.410412 0 20.109189-10.061023 20.109189-30.170212 0-20.10276-6.698777-30.157354-20.109189-30.157354H778.459607V634.069461h129.546119c13.403983 0 20.109189-10.054594 20.109188-30.163783 0-20.10276-6.705206-30.163783-20.109188-30.163783H778.459607V480.936189h129.546119c35.062505 0 62.899073 11.340348 83.528992 34.027473 18.559855 20.62349 27.842997 45.89498 27.842997 75.795184 0 37.126139-13.667562 65.99774-40.989829 86.62123z m-199.934708 201.869767H529.02338V634.07589h249.429798v92.040682H621.835514v60.321137h156.617664v92.812134z m0-305.501519h-156.604806l0.192863 63.17551-92.818563-2.320785-0.192863-153.66686h249.429798v92.812135z" fill="#BA160C" p-id="4368"></path><path d="M1069.849979 377.39444V334.861706h69.289269v-25.522212c0-9.212426-3.066523-13.821853-9.212425-13.821853h-60.083273v-42.526305h60.083273c15.364757 0 27.823711 5.548027 37.389719 16.663369 9.566008 11.108912 14.355441 24.33289 14.35544 39.691218v126.177444h-42.532734v-58.122498h-69.289269z m565.506642 58.128927h-141.072901c-16.534793 0-30.59451-5.490169-42.172723-16.489792-11.578213-10.986766-17.357676-24.75076-17.357676-41.285553v-66.98777c0-16.541222 5.779463-30.305216 17.357676-41.29841 11.578213-10.986766 25.63793-16.476934 42.172723-16.476935h141.072901v42.526306h-141.072901c-11.333919 0-17.004093 5.085156-17.004094 15.249039v66.98777c0 10.157455 5.670174 15.236182 17.004094 15.236182h141.072901z m447.641596 0h-42.892745V365.346928h-109.160493v70.176439h-42.532734V252.991336h42.532734v69.822858h109.160493v-69.816429h42.892745z m447.654454-140.005726h-152.053239v27.296553h142.12722v42.532734h-142.12722v27.643705h151.693228v42.526305h-194.225962V252.984907h194.579544v42.532734z m-1460.802692-42.526305v42.526305h-60.430427c-5.908038 0-8.858843 4.609427-8.858843 13.821853v25.522212h69.28927v42.532734h-69.28927v58.122498h-42.532734V309.339494c0-15.358329 4.789433-28.588735 14.36187-39.691218 9.559579-11.108912 21.909244-16.663369 37.029707-16.663369h60.430427z m-479.007559 122.982346V333.447377h62.378343c6.139474 0 9.218854-6.261621 9.218854-18.778433 0-12.761106-3.07938-19.144873-9.218854-19.144874h-62.378343v-42.526305h62.378343c15.834057 0 28.588735 6.493056 38.276889 19.492027 8.98099 11.816077 13.474699 25.862937 13.474699 42.172723 0 16.303358-4.500138 30.240928-13.474699 41.825569-9.688154 12.992542-22.442832 19.492027-38.276889 19.492027z m-367.198413 59.549685h-42.532734v-58.122498H111.822003V334.861706h69.28927v-25.522212c0-9.212426-3.072951-13.821853-9.212426-13.821853h-60.076844v-42.526305h60.076844c15.364757 0 27.823711 5.548027 37.389719 16.65694 9.572437 11.108912 14.355441 24.339318 14.355441 39.697647z m367.198413-182.532031v42.526305H519.245222v37.929736h71.597198v42.526305H519.245222v59.543256h-42.532734V252.984907h114.129932zM111.828432 377.39444H42.532734v58.122498H0V309.339494c0-15.358329 4.789433-28.588735 14.349012-39.691218 9.572437-11.108912 21.922101-16.663369 37.042565-16.663369h60.430426v42.526306h-60.430426c-5.914467 0-8.858843 4.615856-8.858843 13.821852v25.522212h69.295698z" fill="#666666" p-id="4369"></path><path d="M1552.39336 879.249843h-92.812134v-126.839607h-151.204641v-92.818563h151.204641V603.905678c0-20.10276-6.705206-30.150925-20.115617-30.150925h-131.082595V480.929761h131.089023c33.5196 0 60.713292 12.118229 81.600362 36.348258 20.880641 24.236458 31.32739 53.114487 31.32739 86.62123z m-244.016775-126.839607h-151.204641v126.839607H1064.346953V603.905678c0-33.513171 10.44032-62.384772 31.320961-86.62123s47.830039-36.348258 80.828909-36.348259h131.866905v92.812135h-131.866905c-12.889681 0-19.331308 10.054594-19.331307 30.150925v55.692424h151.20464z m758.986866 3.857261c0 33.526029-10.054594 62.13405-30.170211 85.856207-21.652093 24.75076-48.987218 37.126139-81.979659 37.126139H1611.820899v-92.812134h343.392682c12.89611 0 19.337736-10.054594 19.337736-30.163783 0-20.10276-6.448055-30.157354-19.337736-30.157354h-249.815525c-32.992441 0-60.327566-12.381809-81.979659-37.132569-20.629919-23.194998-30.941664-51.558725-30.941664-85.078325 0-33.506743 10.575325-62.378343 31.713117-86.62123 21.137792-24.236458 48.215766-36.348258 81.208206-36.348259h343.399111V573.754753h-343.399111c-12.889681 0-19.337736 10.054594-19.337736 30.157354 0 19.594887 6.448055 29.392331 19.337736 29.39233h249.821954c32.992441 0 60.321137 12.37538 81.97323 37.132569 20.115617 23.715728 30.170212 52.330178 30.170211 85.843349z" fill="#BA160C" p-id="4370"></path><path d="M2106.032495 879.249843V480.936189h424.620176V573.754753h-331.801613v59.549684h310.143091v92.818563h-310.143091v60.321138h331.023732v92.812134z" fill="#BA160C" p-id="4371"></path><path d="M3953.692775 1018.991989c-1.041461-2.732227-1.890058-7.560232-1.890058-10.729615 0-8.61455-6.634489-19.974184-16.438362-28.170864-4.80229-4.01798-11.732503-11.822506-15.403329-17.351247-7.817383-11.771076-16.284071-16.380503-47.560032-25.90151-34.284624-10.427463-44.821376-19.382738-47.920042-40.713392l-1.542904-10.633184-6.242335 9.051707c-12.221089 17.704829-20.30848 20.533487-36.875417 12.902539-10.517466-4.85372-18.180558-5.297305-26.910826-1.562191-5.567314 2.378644-6.602345 2.282213-10.241029-1.009317-3.889405-3.516537-4.28156-3.529394-9.797443-0.270008-4.345848 2.565079-7.855955 3.072951-14.445444 2.082921-10.530323-1.575048-16.155496 1.491474-23.207855 12.664674-13.339695 21.137792-22.841415 11.462495-22.796414-23.207855 0.05143-38.508325 18.180558-60.333995 70.440019-84.782602 26.897968-12.5811 39.080485-20.732779 46.57643-31.166671 5.773034-8.04239 6.280907-8.325256 8.794555-4.885864 5.348736 7.315939 23.780016 45.033525 32.581 66.679189 10.028879 24.660757 13.056829 29.231611 16.862661 25.43221 3.207956-3.214384-4.557997-25.940082-19.63346-57.460335-37.415434-78.225258-92.689988-134.174832-161.677105-163.650737-31.661686-13.526129-47.225735-16.406218-88.331282-16.329073-31.250245 0.064288-38.919766 0.726451-60.031843 5.22016-30.877376 6.557344-65.406293 17.608398-109.417644 35.004646-44.339218 17.518395-44.377791 17.518395-89.089877 1.517189-18.103413-6.480199-39.813365-13.538987-48.241481-15.686195-17.216243-4.397278-42.635594-5.162301-56.926747-1.72291-16.483363 3.96655-39.678361 16.367645-68.157806 36.44469-34.175335 24.088596-52.561613 33.635318-77.055222 39.999799-21.214937 5.509455-30.183069 10.305316-35.461089 18.964867-4.217272 6.917355-4.628713 12.471811-1.433615 19.47917 2.185781 4.80229 23.104995 20.070616 47.572889 34.728208 6.634489 3.972979 12.555385 8.023103 13.153261 8.993848 1.433615 2.314357-31.713116 18.842721-55.930288 27.887999-43.040607 16.084779-89.308455 26.26152-159.067025 34.985359-46.479998 5.811607-54.393812 7.444514-89.083449 18.32842-13.847568 4.352276-33.892469 9.707441-44.544938 11.925366-46.981442 9.746013-89.559177-1.812913-96.013662-26.062229-1.182893-4.43585-3.285101-9.360287-4.680143-10.96105-8.595264-9.861731-11.783933-33.57103-6.248763-46.479998 1.607192-3.728686 4.821577-18.103413 7.161648-31.950981 8.04239-47.675749 16.219784-73.46154 33.821752-106.730419 30.851661-58.283217 92.265689-132.278346 166.66583-200.796162 49.160795-45.271389 95.872228-80.089601 203.869114-151.937521 66.756335-44.409934 67.399211-44.982095 75.075161-66.396323 1.703624-4.757289 9.983878-35.383943 18.399137-68.067804 26.21009-101.786695 43.02132-140.211446 74.232992-169.680922 17.614826-16.624796 45.676402-26.987971 61.999046-22.886417 9.308857 2.333643 9.771728 6.917355 3.317245 32.786721-10.75533 43.104894-14.381156 70.356445-14.484016 108.81334-0.096432 37.955451 2.250069 52.645187 11.263203 70.427161 12.362522 24.390749 20.700635 29.103036 69.12855 39.022627 171.281686 35.101077 285.565907 87.861982 366.761256 169.320911 75.203737 75.44803 136.495618 193.525225 176.366842 339.773285l7.592376 27.836569 14.529017 11.12177c37.055423 28.395872 57.813917 56.991035 68.877829 94.875769 5.85018 20.044901 4.963009 62.661209-1.8322 87.797694-7.251651 26.807966-13.436127 38.084026-20.919213 38.084026-2.102207 0-4.410135-2.082921-5.509455-4.969438z m3.175812-56.238869c0.694307-2.777228 0.803596-14.760453 0.237864-26.62796-1.800055-37.781874-13.455413-64.763416-40.160518-92.94071-20.507772-21.639236-57.666056-47.746465-67.952086-47.746465-3.934406 0-4.165842 0.687878-3.143667 9.308857 0.604304 5.1173 4.712287 18.79772 9.122422 30.38879 4.410135 11.597499 8.505261 25.200773 9.096708 30.234499 0.951458 8.023103 0.475729 9.758871-3.921549 14.143292-6.030185 6.043043-11.713217 6.31948-20.404912 1.028603-3.580824-2.185781-6.936641-3.54868-7.457371-3.034379-0.514301 0.514301-0.340725 4.461566 0.385726 8.762412 2.635795 15.634766 11.700359 21.915673 46.460711 32.208131 50.947992 15.08832 61.420457 22.012104 69.475704 45.927124 1.716481 5.098014 6.827352 4.075839 8.260968-1.652194z m-1213.751538-71.655056c8.923131-1.607192 26.788679-6.26805 39.704076-10.356747 27.746566-8.788127 49.000075-13.21112 107.71402-22.404259 68.884257-10.787474 96.598679-16.521936 127.302478-26.332236 19.524171-6.235906 37.364004-14.259009 37.241858-16.746943-0.038573-0.78431-5.798749-4.911579-12.806108-9.167424-7.007358-4.262274-20.10276-14.940459-29.103036-23.722157-9.000276-8.788127-17.209814-15.981919-18.244845-15.981919-4.873007 0-17.164813 6.865925-32.677432 18.251274-44.416363 32.593858-59.980412 39.048341-130.780442 54.143091-35.133221 7.489516-47.598604 11.738932-64.030537 21.819241-22.71284 13.937571-27.605133 16.245499-42.507019 20.057758-8.318827 2.121494-21.472088 3.86369-29.218754 3.86369-20.250622 0-22.500691 6.300193-3.458677 9.66244 11.22463 1.98649 28.56302 0.932171 50.864418-3.085809z m964.919615-3.985837c1.459331-1.767911 6.390196-4.873007 10.961051-6.898069l8.29954-3.683684 17.846262 5.413023c22.339971 6.775922 51.629442 7.77881 59.556114 2.031491l11.378921-8.260968c3.998694-2.892946 8.035961-4.358705 10.170312-3.677255 1.954346 0.617162 3.54868 0.829311 3.54868 0.462871 0-1.973632-27.36084-64.557696-29.951634-68.511389l-3.072951-4.693001-9.746013 7.708094c-5.361593 4.236559-23.529294 15.988348-40.372668 26.120087-43.272042 26.017227-56.849602 39.279777-53.57093 52.330178 0.951458 3.792974 2.45579 4.879435 6.756636 4.879435 3.047236 0 6.73735-1.452902 8.19668-3.220813z m-815.61789-111.52628c4.693001-2.397931 9.366716-5.760177 10.401748-7.483087 8.132392-13.487557-24.294317-12.066799-33.031014 1.446473-2.307928 3.580824-2.250069 4.557997 0.462871 7.264509 4.339419 4.339419 12.124658 3.908691 22.172824-1.221466z m61.028302-42.327013c20.848497-5.593029 41.71628-12.465383 48.093619-15.834058 13.346124-7.039502 24.686472-19.254162 32.754576-35.281083 3.214384-6.390196 9.225283-14.754024 13.352553-18.579141 4.12727-3.837975 7.502373-8.376686 7.502373-10.093167 0-15.081891-51.815876-21.934959-85.21333-11.27606-40.475528 12.921825-79.138143 54.149519-80.070314 85.386906-0.57216 19.151302 9.91959 20.089902 63.580523 5.676603z m795.013686-59.176817c0-3.510108-12.915396-20.681349-22.050677-29.315185-17.724115-16.766229-35.827528-27.090831-70.703598-40.334095-20.713493-7.862384-29.250898-12.683961-29.250898-16.515507 0-0.900028 1.735768-3.375104 3.870119-5.509455 10.871048-10.871048 62.950504 2.526506 99.690916 25.650788 14.509731 9.128852 31.063811 22.024962 44.872806 34.940358 10.556038 9.874589 12.298235 10.896763 12.298235 7.200221 0-5.818036-9.578865-23.368574-21.25351-38.919766-29.199468-38.906908-76.70164-69.205695-129.854699-82.821828-42.944175-10.999623-80.211748-11.629643-112.002009-1.883629-29.385902 9.013134-63.516235 30.247357-97.781573 60.861153-48.215766 43.072751-62.50049 55.081691-74.830868 62.911931-7.405942 4.705859-13.204691 9.39886-12.89611 10.427463 0.321438 1.028603 5.875895 3.567967 12.362522 5.644459l11.783933 3.767259 28.743025-13.204691c56.830316-26.10723 108.999774-42.91846 147.842395-47.630748 59.273248-7.193792 125.553853 11.53964 184.955677 52.26589 18.103413 12.420381 24.204314 15.55762 24.204314 12.471811z m-524.825394 163.850029c-60.964014-7.534517-118.552924-28.839457-165.585796-61.253308-10.658899-7.348083-13.693277-10.517466-14.181864-14.83117-1.227895-10.710329 8.582406-17.049095 35.081791-22.654981 23.317144-4.930866 38.726903-12.748248 73.995128-37.524723 47.675749-33.493885 66.537756-41.099119 97.607996-39.382637 14.548304 0.803596 23.638583 3.252957 71.847919 19.350594 72.265789 24.133598 148.90957 51.436579 154.669748 55.107405 13.204691 8.402401-9.60458 39.446925-45.361393 61.729038-26.955827 16.804801-62.55192 30.003064-99.118756 36.753271-20.147761 3.722257-87.264107 5.387308-108.954773 2.706511z m-450.405966-300.724944c-0.758595-1.960774-0.880741-11.546069-0.270009-21.304939 2.687225-42.879887 25.997941-91.37209 57.74963-120.102258 12.169659-11.01891 31.610256-22.545692 38.006881-22.545692 6.364481 0 10.324603 6.653776 15.08832 25.361493 2.50722 9.848874 6.428769 20.443485 8.71741 23.535722 2.288642 3.098667 3.870119 5.888752 3.510108 6.203762-0.360011 0.321438-9.373145 7.495944-20.019186 15.956204-26.017227 20.655634-62.037618 53.93737-83.683283 77.312373-14.766882 15.956204-17.955551 18.553427-19.099871 15.583335z" fill="#050505" p-id="4372"></path></svg>