<?xml version="1.0" standalone="no"?><!DOCTYPE svg PUBLIC "-//W3C//DTD SVG 1.1//EN" "http://www.w3.org/Graphics/SVG/1.1/DTD/svg11.dtd"><svg t="1737017055889" class="icon" viewBox="0 0 1024 1024" version="1.1" xmlns="http://www.w3.org/2000/svg" p-id="4525" xmlns:xlink="http://www.w3.org/1999/xlink" width="200" height="200"><path d="M614.3 594.7l-14.6 43.9s32.4 28.2 34.5 58.6c2.1 30.3 31.4 73.2 0 75.3-31.4 2.1-83.7-6.3-99.3 0-15.7 6.3-70.1 47.1-77.4 48.1-7.3 1-56.5-8.4-56.5-37.6 0-29.3-17.8-18.8-8.4-40.8 9.4-22 19.9-34.5-7.3-31.4-27.2 3.1-28.2-4.2-40.8 0-12.5 4.2-19.9 97.3-34.5 99.3-14.6 2.1-70.1-10.5-84.7-11.5-14.6-1-20.9-26.2-20.9-26.2s30.3-29.3-14.6-36.6-77.4-57.5-72.2-65.9 43.9-48.1 43.9-48.1-3.1-118.2 0-121.3c3.1-3.1 37.6-84.7 54.4-94.1 16.7-9.4 70.1-50.2 86.8-54.4 16.7-4.2 48.1-7.3 53.3-6.3 5.2 1-64.8 130.7-64.8 130.7l34.5 64.9s-3.1 57.5 2.1 60.7c5.2 3.1 69 20.9 82.6 14.6 13.6-6.3 79.3-40.1 89.9-43.9 14.6-5.2 22-26.1 22-26.1l92 48.1z" fill="#F8F300" p-id="4526"></path><path d="M522.2 546.6C532.7 559.1 615.3 625 678 625c35.1 0 51.8-37.2 76.3-41.9 120.8-23.2 137-57.5 137-57.5s29.1-79.9 19.9-128.6c-25.1-132.8-56.2-58.4-99.3-52.3-26.1 3.7-98.1-131.1-195.6-140.1-82.6-7.7-226.6 133.1-252 152.7-9.7 7.5-65.4 51.1-76.3 98.3-9.1 39.2 12.9 55.6 47.1 124.4 7.2 14.4 26.4 48.1 55.4 41.8 48.4-10.4 131.7-75.2 131.7-75.2z" fill="#F8F300" p-id="4527"></path><path d="M498.4 188.2c5.4 0 5.4 0 5.4 5.4 0 0 0 5.4-5.4 5.4-32.6 16.3-43.5 27.2-59.8 59.8l-5.4 5.4c-5.4 0-5.4 0-5.4-5.4 0-10.9 5.4-21.8 10.9-27.2-5.4 0-5.4 0-5.4-5.4 0-10.9 5.4-21.8 10.9-27.2 5.4-5.4 10.9-5.4 21.8-10.9s5.4 0 5.4 5.4c5.3 0.2 16.1-5.3 27-5.3z" p-id="4528"></path><path d="M612.6 193.6c32.6 0 59.8 16.3 87 38.1 21.8 16.3 38.1 32.6 54.4 43.5 10.9 5.4 21.8 10.9 27.2 21.8 10.9 10.9 16.3 21.8 21.8 38.1 5.4 0 10.9-5.4 16.3-10.9 5.4-5.4 10.9-16.3 21.8-27.2h38.1c10.9 5.4 16.3 10.9 21.8 16.3 21.6 43.5 27 108.7 27 152.2-5.4 48.9-27.2 97.9-70.7 125.1-27.2 16.3-70.7 16.3-103.3 10.9 0 5.4-5.4 10.9-5.4 16.3-5.4 27.2-32.6 42.3-59.8 43.5-27.8 1.3-67.5-34.2-67.5-34.2 5.4 10.9 13.1 17.9 13.1 28.8 5.4 10.9 10.9 21.8 10.9 38.1v38c5.4 10.9 5.4 16.3 5.4 27.2 0 10.9-5.4 21.8-10.9 27.2h-92.4c-5.4 0-5.4 0-10.9-5.4-5.4 5.4-10.9 10.9-21.8 16.3-5.4 5.4-5.4 5.4-10.9 5.4l-5.4 5.4C493 813.6 493 819 493 819c-5.4 5.4-5.4 10.9-16.3 10.9-16.3 10.9-38.1 10.9-48.9 0-10.9-5.4-21.8-21.8-32.6-38.1 0-5.4-10.9-16.3-16.3-32.6 0-5.4-5.4-16.3 0-21.8 0-5.4 5.4-10.9 10.9-16.3h-38.1v16.3c0 5.4-5.4 10.9-5.4 16.3-5.4 5.4-5.4 10.9-10.9 21.8v32.6c0 10.9-10.9 16.3-16.3 16.3-5.4 5.4-16.3 5.4-27.2 0-16.3 0-38.1-5.4-43.5-10.9-10.9-5.4-27.2-5.4-38.1-16.3-5.4-5.4-10.9-10.9-10.9-16.3v-21.8c0-5.4 5.4-10.9 5.4-10.9-10.9 0-21.8 0-32.6-5.4S145 726.5 139.6 721c-21.8-10.9-27.2-27.2-32.6-43.5v-16.3c0-5.4 5.4-5.4 10.9-10.9l27.2-27.2c5.4-10.9 5.4-16.3 10.9-27.2 0-5.4 0-10.9-5.4-21.8V509c-5.4 5.4-10.9 5.4-16.3 5.4-10.9-5.4-16.3-10.9-21.8-21.8 0-5.4-5.4-10.9-5.4-21.8-11.1-5.3-11.1-16.2-11.1-27s5.4-21.8 16.3-27.2c5.4-10.9 16.3-16.3 21.8-21.8 10.9-5.4 16.3-10.9 21.8-10.9 5.4 0 5.4 0 5.4 5.4s-5.4 10.9-5.4 16.3c10.9 5.4 10.9 10.9 10.9 16.3v21.8l-5.4 5.4H156c0-5.4-5.4-5.4-5.4-5.4v10.9c0 5.4-5.4 10.9-10.9 16.3h5.4c10.9-5.4 21.8-16.3 32.6-27.2 10.9-21.8 21.8-38.1 43.5-54.4 43.5-38.1 87-54.4 157.7-65.3 5.4-10.9 16.3-16.3 27.2-27.2 10.9-10.9 27.2-16.3 38.1-16.3 21.8-27.2 38.1-48.9 76.1-65.3 28.6-14.1 60.2-21.6 92.3-21.6z" p-id="4529"></path><path d="M612.6 220.8c-27.2 0-54.4 5.4-92.4 21.8-21.8 10.9-32.6 21.8-43.5 38.1h43.5c5.4 0 5.4 0 5.4 5.4 0 0 0 5.4-5.4 5.4-21.8 0-38.1 5.4-59.8 5.4-10.9 0-16.3 0-21.8 5.4-5.4 0-10.9 5.4-16.3 10.9-32.6 32.6-54.4 65.3-81.6 92.4-16.3 16.3-21.8 32.6-32.6 54.4-5.4 5.4-5.4 10.9-5.4 16.3s5.4 10.9 10.9 16.3c5.4 16.3 16.3 27.2 21.8 38.1 10.9-16.3 27.2-32.6 43.5-54.4h5.4c-16.3 27.2-27.2 48.9-38.1 70.7-5.4 16.3-10.9 21.8-10.9 32.6 10.9 16.3 21.8 21.8 32.6 27.2 10.9 5.4 27.2 5.4 38.1-5.4 27.2-16.3 59.8-38.1 92.4-38.1 10.9-27.2 10.9-65.3 5.4-103.3-5.4-27.2-5.4-54.4 0-87l5.4-5.4c5.4 0 5.4 0 5.4 5.4 0 27.2 5.4 54.4 10.9 87 10.9 43.5 10.9 81.6-5.4 125.1l-5.4 5.4c-38.1 0-65.3 21.8-103.3 38.1-16.3 10.9-32.6 10.9-48.9 5.4-21.8-5.4-32.6-16.3-48.9-38.1v-5.4c0-16.3 5.4-21.8 10.9-32.6-16.3-21.8-21.8-27.2-32.6-48.9-10.9-10.9-16.3-21.7-16.3-32.6 0-5.4 0-16.3 10.9-32.6s16.3-38.1 32.6-54.4c10.9-10.9 21.8-21.8 27.2-32.6-43.5 5.4-76.1 21.8-108.8 48.9-27.2 21.8-43.5 54.4-54.4 87-10.9 21.8-10.9 43.5-10.9 81.6 5.4 43.5 27.2 97.9 54.4 135.9v5.4c-5.4 21.8-5.4 43.5-16.3 59.8v5.4l5.4 5.4c5.4 5.4 16.3 5.4 27.2 10.9 5.4 0 21.8 5.4 32.6 5.4h16.3c5.4 0 5.4 0 5.4-5.4v-27.2c10.9-16.3 10.9-16.3 16.3-27.2 16.3-5.4 16.3-10.9 16.3-21.8v-54.4c0-5.4 0-5.4 5.4-5.4 0 0 5.4 0 5.4 5.4s5.4 16.3 5.4 27.2c27.2 5.4 59.8 5.4 87 0v-5.4c0-10.9 5.4-16.3 10.9-21.8l5.4-5.4c5.4 0 5.4 0 5.4 5.4v54.4c0 5.4 0 5.4-5.4 5.4 0 0-5.4 0-5.4-5.4l-5.4-5.4c-10.9 5.4-21.8 10.9-32.6 21.8l-5.4 5.4v10.9c5.4 10.9 10.9 16.3 10.9 21.8 5.4 10.9 16.3 21.8 21.8 27.2 5.4 5.4 16.3 10.9 27.2 5.4 5.4-5.4 10.9-10.9 16.3-21.8s5.4-5.4 10.9-5.4c5.4-5.4 10.9-10.9 16.3-10.9 5.4-5.4 10.9-10.9 16.3-10.9 5.4-5.4 5.4-5.4 10.9-5.4l5.4-5.4 5.4-5.4c5.4-10.9 10.9-16.3 16.3-21.8 5.4-5.4 10.9-16.3 10.9-21.8 5.4-5.4 5.4-10.9 5.4-16.3 10.9-27.2 16.3-48.9 21.8-76.1-16.3-10.9-27.2-16.3-43.5-32.6v-5.4c0-5.4 0-5.4 5.4-5.4h5.4c21.8 16.3 38.1 21.8 59.8 27.2l21.8 21.8 16.3 16.3h-5.4c-5.4-5.4-5.4-10.9-5.4-16.3 0-10.9 5.4-21.8 5.4-32.6 5.4-10.9 0-21.8 0-32.6l-5.4 5.4c0 5.4-5.4 10.9-10.9 21.8l-5.4 5.4c-5.4 0-5.4 0-5.4-5.4s0-10.9 5.4-16.3c0-5.4 0-10.9 5.4-16.3s10.9-5.4 16.3-5.4 10.9 0 16.3-5.4c5.4 0 5.4 0 5.4 5.4v5.4c-5.4 0-10.9 5.4-16.3 5.4 10.9 5.4 16.3 10.9 27.2 10.9 48.9 16.3 97.9 32.6 146.8 5.4 32.6-21.8 54.4-65.3 59.8-103.3 5.4-38.1-5.4-92.4-16.3-130.5 0 0 0-5.4-5.4-5.4-5.4 21.8-16.3 38.1-43.5 43.5h-16.3c-5.4 0-5.4 0-10.9-5.4v5.4c5.4 16.3 5.4 38.1 0 54.4-5.4 16.3-5.4 32.6-16.3 48.9h-5.4c-5.4 0-5.4 0-5.4-5.4s5.4-27.2 5.4-43.5v-21.8s-5.4 0-5.4 5.4c-5.4 0-5.4 5.4-5.4 5.4-5.4 16.3-5.4 27.2-16.3 43.5l-5.4 5.4c-5.4 0-5.4 0-5.4-5.4 5.4-5.4 5.4-16.3 5.4-21.8 0-5.4 0-16.3 5.4-27.2-5.4 0-5.4 5.4-10.9 10.9-5.4 5.4-5.4 16.3-16.3 27.2h-5.4c-5.4 0-5.4 0-5.4-5.4V433c5.4-10.9 5.4-21.8 10.9-32.6 5.4-10.9 10.9-16.3 27.2-21.8h-10.9c-5.4 0-5.4 0-5.4-5.4 0 0 0-5.4 5.4-5.4h5.4c0-5.4-5.4-5.4 0-10.9h-10.9l-5.4-5.4s0-5.4 5.4-5.4 16.3-5.4 21.8-5.4c5.4 0 10.9-5.4 16.3-5.4h5.4c-5.4-5.4-5.4-10.9-10.9-21.8-5.4-5.4-10.9-5.4-21.8-16.3 0 0-5.4 0-5.4-5.4h-21.8c-5.4 0-5.4 0-5.4-5.4 0 0 0-5.4 5.4-5.4h5.4c-10.9-10.9-21.8-16.3-32.6-27.2-27.2-22.1-54.4-33-81.6-33z" fill="#FEFF05" p-id="4530"></path><path d="M628.9 307.8c5.4 0 5.4 0 5.4 5.4 0 0 0 5.4-5.4 5.4-27.2 10.9-32.6 27.2-38.1 48.9l-5.4 5.4s-5.4 0-5.4-5.4c0-10.9 0-27.2 5.4-38.1 5.4-10.7 21.8-16.1 43.5-21.6zM509.3 307.8c5.4 0 5.4 0 5.4 5.4 0 0 0 5.4-5.4 5.4-10.9 5.4-21.8 10.9-38.1 16.3-10.9 16.3-16.3 21.8-16.3 43.5l-5.4 5.4s-5.4 0-5.4-5.4c-5.4-10.9-5.4-16.3-5.4-27.2-5.4 10.9-5.4 16.3-10.9 27.2-5.4 16.3-16.3 27.2-16.3 38.1L406 422c-5.4 0-5.4 0-5.4-5.4 0-10.9 5.4-27.2 10.9-43.5 5.4-21.8 16.3-38.1 21.8-43.5 5.4-5.4 10.9-10.9 16.3-10.9h16.3c10.8-5.4 27.1-5.4 43.4-10.9zM868.2 318.7c-10.9 10.9-16.3 21.8-27.2 32.6-5.4 5.4-10.9 5.4-10.9 5.4h5.4c5.4 0 5.4-5.4 5.4-5.4 11-10.8 21.8-16.3 27.3-32.6zM677.9 356.8c5.4 0 5.4 0 5.4 5.4v5.4s-5.4 5.4-10.9 5.4l10.9 10.9v5.4c5.4 0 16.3-5.4 21.8-5.4 5.4 0 5.4 0 5.4 5.4 0 0 0 5.4-5.4 5.4-27.2 5.4-48.9 21.8-70.7 43.5H629c-5.4 0-5.4 0-5.4-5.4s5.4-10.9 5.4-10.9l-11-10.8v-5.4c-5.4 5.4-10.9 5.4-16.3 10.9-5.4 0-5.4 0-5.4-5.4v-5.4l16.3-16.3c5.4-5.4 10.9-16.3 16.3-16.3 5.4-5.4 16.3-5.4 21.8-5.4 16.3-5.6 21.7-11 27.2-11z" p-id="4531"></path><path d="M134.1 422c-5.4 5.4-10.9 10.9-10.9 16.3-5.4 0-5.4 5.4-5.4 10.9 0 5.4 0 10.9 5.4 16.3 5.4-5.4 10.9-10.9 10.9-21.8V422zM161.3 487.3c-10.9 0-16.3 5.4-21.8 5.4-5.4 0-5.4 0-10.9-5.4 0 5.4 5.4 5.4 10.9 5.4 5.4 0 10.9 0 21.8-5.4z" fill="#FEFF05" p-id="4532"></path><path d="M721.4 617.8c0 5.4-5.4 5.4-10.9 5.4 5.4 5.5 10.9 0.1 10.9-5.4z" p-id="4533"></path><path d="M166.7 634.1c-10.9 10.9-16.3 21.8-27.2 27.2l-5.4 5.4v5.4c0 10.9 10.9 21.8 16.3 32.6 5.4 5.4 16.3 10.9 27.2 16.3 5.4 0 10.9 5.4 16.3 5.4s5.4 0 10.9-5.4c0 0 0-5.4 5.4-10.9-21.8-16.1-32.6-43.3-43.5-76zM612.6 661.3c-5.4 10.9-5.4 21.8-10.9 32.6-5.4 10.9-10.9 27.2-21.8 38.1-5.4 10.9-16.3 21.8-21.8 27.2h65.3s5.4-5.4 5.4-10.9c0-10.9 0-5.4-5.4-16.3v-38c-5.4-10.9-5.4-16.4-10.8-32.7zM730.2 590.8l12.2 6.1s-8.4 49.1-43.9 54.9c0 0-55.1 4.6-91.3-68.7l19.3 3.2s38.6 52.2 62.1 48.5c35.1-5.5 40.6-24.3 41.6-44z" fill="#FEFF05" p-id="4534"></path><path d="M643.7 413.4c1.9-0.8 9.8-1.5 9.7-4.7-0.2-8.2-6.7-11.1-15.1-11.1-8.4 0-15.2 6.8-15.2 15.2 0 1.1 0.1 2.2 0.2 3.2 1.6 2.9 3.4 3.9 5.6 6 1.9-1.1 5.1-4.8 14.8-8.6zM755.9 374.4c2-0.4 9.9 0.2 10.4-2.9 1.2-8.1-4.6-12.1-12.9-13.6s-16.2 4.1-17.6 12.4c-0.2 1.1-0.3 2.2-0.3 3.2 1.1 3.2 2.6 4.5 4.5 6.9 1.8-0.8 5.7-3.9 15.9-6z" fill="#FFFFFF" p-id="4535"></path></svg>