<?xml version="1.0" standalone="no"?><!DOCTYPE svg PUBLIC "-//W3C//DTD SVG 1.1//EN" "http://www.w3.org/Graphics/SVG/1.1/DTD/svg11.dtd"><svg t="1737017021390" class="icon" viewBox="0 0 3287 1024" version="1.1" xmlns="http://www.w3.org/2000/svg" p-id="4197" xmlns:xlink="http://www.w3.org/1999/xlink" width="641.9921875" height="200"><path d="M828.766316 437.167158c-41.795368 186.556632-80.410947 373.086316-122.206316 559.642947 12.853895 3.233684 16.087579 3.233684 22.501053 3.233684 106.172632 3.206737 106.172632 3.206737 135.087158-99.705263 12.880842-41.822316 38.615579-28.968421 67.557052-22.528-6.440421 41.795368-16.087579 77.177263-22.528 122.206316h453.524211c93.237895 0 90.031158 0 115.765894-86.824421 3.233684-12.880842 16.087579-35.381895 25.734737-38.615579 83.617684-9.647158 167.262316-12.853895 266.967579 6.467369-25.734737 12.853895-35.381895 22.501053-48.235789 25.707789-19.321263 3.233684-41.822316 0-64.350316 0-83.617684 0-83.617684 0-90.058105 93.264842h218.704842c54.703158 0 86.851368-22.501053 96.498526-77.177263 6.440421-22.528 12.880842-48.235789 16.087579-70.76379 6.440421-41.822316-16.087579-70.763789-57.882947-73.970526-25.734737-3.233684-54.703158 0-80.410948 0v-16.087579c48.235789-32.175158 109.352421-3.233684 160.794948-19.294316a700.362105 700.362105 0 0 0 19.321263-70.763789h800.875789a1161.162105 1161.162105 0 0 1-22.528 112.559158h167.235369c9.647158 0 25.734737-16.060632 32.175158-25.70779 28.941474-83.644632 28.941474-83.644632 112.559158-83.644631h67.557052c70.763789-3.206737 112.559158-35.381895 131.853474-106.118737 12.880842-51.469474 22.528-106.172632 35.381895-157.615158 19.294316-93.264842-6.413474-125.44-102.938948-125.44H2112.107789c6.467368-38.588632 12.880842-70.763789 19.321264-106.145684h-189.763369c-9.674105 35.381895-16.087579 67.557053-25.734737 106.172631h-852.345263c6.467368-41.822316 12.880842-73.997474 19.294316-109.379368h-151.174737c-12.853895 0-32.148211-3.233684-41.768421-12.853895-45.056-51.469474-45.056-54.703158-93.291789-9.647158-3.233684 3.206737-9.647158 3.206737-6.440421 3.206737-38.588632-32.175158-70.763789-61.116632-106.145685-90.058105-99.705263-83.617684-196.176842-77.204211-289.468631 12.853895C362.442105 109.136842 327.033263 138.051368 288.444632 150.905263c-83.644632 22.528-154.408421 54.703158-199.410527 135.087158-6.467368-25.734737-12.880842-45.002105-19.321263-64.323368C-1.024 257.077895-13.904842 305.313684 34.330947 347.109053c35.381895 32.175158 41.822316 96.471579 16.087579 131.880421-45.002105 61.089684-35.381895 96.471579 35.381895 131.853473 9.647158 3.233684 22.528 12.880842 22.528 19.294316 0 73.997474 61.089684 51.469474 99.705263 64.323369 35.381895 12.880842 48.235789-12.853895 54.676211-48.23579 6.413474-22.501053 6.413474-67.530105 51.469473-64.323368-9.674105 54.676211 19.294316 86.851368 51.469474 112.559158 12.853895 9.674105 51.442526 9.674105 57.882947-3.206737 32.148211-48.235789 77.177263-48.235789 128.646737-45.002106 41.795368 3.179789 57.882947-16.114526 45.002106-57.936842-9.620211-32.148211-9.620211-64.296421-12.853895-99.705263 64.323368 35.408842 80.410947 32.175158 125.44-25.707789 6.440421-9.647158 19.294316-16.087579 28.941474-16.087579 25.734737-6.440421 54.703158-6.440421 90.058105-9.647158z" fill="#FFFFFF" p-id="4198"></path><path d="M828.766316 437.167158c-35.381895 3.233684-64.323368 3.233684-93.264842 9.647158-9.647158 0-22.501053 9.647158-28.941474 16.087579-41.822316 57.882947-57.909895 61.116632-125.44 25.734737 3.233684 35.381895 3.233684 67.530105 12.853895 99.705263 9.647158 41.795368-3.206737 61.089684-45.002106 57.882947-51.469474-3.233684-96.498526-3.233684-128.673684 45.029053-6.440421 9.647158-45.002105 12.880842-57.882947 3.233684-32.175158-25.734737-57.909895-57.909895-51.469474-112.586105-48.235789-3.233684-48.235789 38.588632-51.469473 64.323368-6.413474 35.381895-19.294316 61.116632-54.676211 48.23579-35.381895-12.853895-99.705263 9.674105-99.705263-64.323369 0-6.413474-12.853895-16.060632-22.501053-19.294316C11.829895 575.461053 2.155789 540.079158 47.211789 478.989474c25.734737-35.381895 19.294316-102.938947-16.087578-131.880421-48.235789-41.822316-35.381895-93.264842 35.381894-125.44 6.440421 19.294316 12.853895 38.588632 19.294316 64.323368C130.829474 205.608421 204.8 173.433263 285.210947 150.905263c38.588632-9.647158 77.204211-41.795368 106.145685-70.763789 93.264842-86.824421 189.763368-93.237895 289.468631-12.853895 35.381895 28.941474 67.530105 57.882947 106.145684 90.058105 0 0 3.233684 0 6.413474-3.233684 48.235789-45.002105 48.235789-45.002105 93.29179 9.674105 9.647158 9.647158 25.734737 12.853895 41.795368 12.853895 48.235789 3.233684 96.498526 0 151.174737 0-6.440421 38.588632-12.853895 70.763789-19.294316 109.352421h852.345263c9.620211-38.588632 19.267368-70.763789 25.70779-106.145684h189.763368c-6.440421 35.381895-12.853895 67.557053-19.294316 106.172631h1051.75579c96.471579 0 122.206316 32.148211 102.912 125.413053-9.647158 51.469474-22.528 106.145684-35.381895 157.615158-16.087579 70.736842-57.882947 102.912-131.880421 106.118737h-67.530105c-86.851368 0-83.617684 0-112.586106 83.644631-3.206737 9.647158-19.294316 25.707789-32.14821 25.70779-54.703158 3.233684-109.352421 0-167.262316 0 6.467368-38.588632 12.880842-70.736842 22.528-112.559158h-800.875789c-9.647158 28.941474-16.087579 51.469474-19.294316 70.763789-54.676211 16.087579-112.559158-12.880842-160.821895 19.294316v16.087579h80.410947c45.029053 3.233684 67.557053 32.148211 57.909895 73.970526-3.233684 22.501053-9.674105 48.235789-16.087579 70.76379-9.647158 51.469474-41.822316 77.177263-96.471579 77.177263h-218.731789c3.233684-93.264842 3.233684-93.264842 90.058105-93.264842 22.501053 0 41.795368 3.233684 64.323369 0 12.853895-3.233684 22.501053-12.853895 48.235789-25.734737-99.705263-22.501053-183.322947-16.087579-266.940632-6.440421-9.647158 0-22.528 22.528-25.734736 38.615579-22.528 90.058105-22.528 86.824421-115.792843 86.824421H905.970526c9.674105-45.002105 16.114526-80.410947 22.528-122.206316-28.941474-6.440421-54.676211-22.528-67.530105 22.501053-28.941474 102.938947-28.941474 102.938947-135.087158 99.705263-6.440421 0-9.647158-3.233684-22.528-3.233684 45.029053-186.529684 83.644632-369.852632 125.44-559.616z" fill="#000000" p-id="4199"></path><path d="M259.503158 224.875789c-3.233684 0-3.233684-3.206737-6.467369-3.206736 9.674105-16.087579 19.321263-28.941474 25.734737-45.002106-41.795368 9.620211-83.617684 19.267368-112.559158 41.768421-96.471579 67.557053-115.792842 180.143158-54.67621 299.11579 12.853895 25.761684 22.501053 57.936842 22.501053 86.851368 0 25.734737-19.294316 54.703158 25.734736 57.909895 32.175158 3.233684 70.763789 28.941474 77.204211-32.175158 3.233684-25.734737 16.087579-51.469474 25.734737-77.177263h135.087158a790.016 790.016 0 0 0-70.76379 54.676211c12.853895 22.501053 22.501053 45.002105 41.795369 61.116631 9.674105 6.413474 32.175158 9.647158 41.822315 3.206737 22.528-12.853895 45.029053-32.175158 64.323369-54.703158 45.029053-51.442526 77.204211-106.118737 67.557052-176.882526 51.469474-9.647158 73.970526 96.498526 141.500632 28.968421-19.294316 3.206737-38.588632 6.413474-61.089684 9.647158 3.206737-28.968421 3.206737-51.469474 6.413473-77.204211 86.851368 19.294316 170.469053 61.116632 231.585685-35.381895 38.588632-61.116632 25.734737-180.116211-16.087579-221.911579-41.795368 32.148211-83.617684 61.089684-70.76379 115.765895a484.190316 484.190316 0 0 1-54.67621-32.14821c16.087579-6.440421 25.734737-9.647158 38.615579-16.087579-12.880842-9.647158-22.528-16.087579-35.381895-25.734737 16.060632-12.853895 22.501053-19.294316 38.588632-32.148211-54.703158-38.615579-106.145684-80.410947-157.615158-112.586105-19.294316-12.853895-51.469474-6.440421-77.177264-3.233684-83.617684 9.674105-128.646737 80.437895-189.763368 122.233263-35.381895 12.880842-54.703158 41.822316-77.20421 64.323368z m1045.288421 167.262316h61.116632c54.676211 0 109.352421-3.233684 160.821894 0 16.060632 0 32.148211 19.294316 48.23579 28.941474-16.087579 6.440421-28.941474 19.294316-45.029053 22.528-41.822316 3.206737-86.851368 0-131.880421 0-102.912 0-115.765895 12.853895-141.500632 112.559158-16.087579 64.323368 3.233684 86.851368 70.76379 90.058105h250.88c32.148211 0 41.768421-12.853895 48.235789-38.588631 12.853895-70.763789 28.941474-138.293895 45.002106-209.057685 12.880842-57.909895-6.413474-80.410947-64.296421-83.644631-77.204211 0-157.615158 3.233684-234.792421 0-51.469474-3.206737-73.997474 12.880842-67.557053 77.20421z m1498.812632 360.232421c83.617684 19.294316 90.058105 16.087579 102.938947-57.909894 6.413474-35.354947 22.501053-45.002105 54.649263-45.002106 48.235789 3.206737 93.291789 0 141.527579 0 51.469474 0 86.851368-25.734737 96.471579-77.20421 12.880842-57.882947 28.968421-118.999579 38.615579-180.116211 9.647158-51.469474-9.647158-73.970526-64.323369-77.20421h-151.174736c-125.44 0-125.44 0-154.381474 122.233263-19.294316 106.145684-41.822316 212.264421-64.323368 315.203368zM2096.020211 212.021895c-83.644632-19.294316-86.851368-19.294316-102.938948 57.882947-6.413474 41.822316-25.734737 51.469474-64.323368 48.23579-45.002105-3.206737-90.058105 0-135.087158 0-54.676211 0-83.617684 25.761684-96.471579 77.20421-12.880842 57.909895-25.734737 119.026526-38.615579 180.116211-9.647158 48.235789 6.440421 70.763789 54.703158 73.970526 86.824421 3.233684 170.442105 3.233684 257.293474 0 12.853895 0 32.148211-12.853895 35.381894-22.501053C2034.903579 485.402947 2067.051789 350.315789 2096.020211 212.021895z m189.763368 106.145684h-115.792842c-45.029053 0-77.204211 22.501053-90.058105 64.323368-16.087579 64.323368-32.175158 128.646737-41.822316 192.970106-9.647158 51.469474 9.647158 70.763789 64.323368 70.763789h218.73179c41.795368 0 77.177263-19.294316 90.058105-57.882947 19.294316-67.557053 32.148211-138.320842 45.002105-209.057684 6.467368-38.615579-12.853895-64.350316-54.67621-64.350316-38.588632 3.233684-77.177263 3.233684-115.765895 3.233684zM2610.634105 649.431579h99.705263c67.530105 0 96.471579-25.707789 112.559158-93.237895 12.880842-54.703158 25.734737-109.379368 35.381895-164.055579 9.647158-48.235789-9.647158-73.970526-57.882947-73.970526h-231.585685c-45.029053 0-77.204211 22.501053-86.851368 67.530105-16.060632 61.116632-28.941474 125.44-41.795368 189.763369-9.647158 48.235789 12.853895 73.970526 61.089684 73.970526 35.381895 3.233684 73.997474 0 109.379368 0z m-1482.752-9.647158c83.644632 19.321263 86.851368 16.087579 102.938948-57.882947 12.853895-61.116632 28.941474-122.233263 38.588631-183.322948 9.647158-57.909895-9.647158-80.410947-64.323368-80.410947h-183.322948c3.233684-22.528 6.413474-41.822316 9.647158-57.909895 3.233684-16.060632 6.413474-35.381895 9.647158-51.469473-83.617684-16.060632-83.617684-16.060632-102.938947 57.936842-16.060632 73.943579-32.148211 151.147789-48.23579 225.118315-9.647158 48.235789-19.294316 96.471579-32.14821 144.734316 86.824421 12.853895 86.824421 12.853895 102.912-64.323368 6.440421-25.734737 9.647158-51.469474 16.087579-77.204211 28.941474-128.646737 3.233684-102.912 131.853473-106.118737 54.703158 0 64.323368 9.647158 51.469474 64.323369-3.233684 67.530105-19.294316 128.646737-32.175158 186.529684z m-51.469473 337.731368c73.997474 0 138.320842 3.233684 199.410526-3.233684 19.321263-3.206737 48.262737-25.707789 54.703158-45.002105 19.294316-64.350316 32.148211-131.880421 45.002105-199.410526 9.674105-38.615579-6.413474-57.909895-45.002105-57.909895-54.703158 0-109.352421-3.233684-160.821895 0-12.853895 0-28.941474 16.087579-32.14821 28.941474a10931.469474 10931.469474 0 0 1-61.116632 276.614736z m-112.559158 9.647158c28.968421-9.647158 57.909895-12.880842 61.116631-25.734736 25.734737-93.264842 45.029053-186.556632 64.323369-283.028211-61.116632-3.233684-57.882947-3.233684-73.970527 45.002105-6.440421 25.761684-19.294316 64.350316-35.381894 70.76379-32.148211 12.880842-73.970526 3.233684-115.792842 3.233684 9.647158-45.029053 16.087579-80.410947 25.734736-135.087158-28.941474 12.853895-57.882947 19.294316-61.116631 28.941474-25.707789 93.264842-41.795368 183.322947-64.323369 276.614737 48.235789 16.060632 64.323368 3.233684 70.76379-41.822316 3.233684-28.941474 19.294316-67.530105 38.588631-73.970527 32.175158-12.880842 73.997474-3.233684 112.586106-3.233684a2462.073263 2462.073263 0 0 1-22.528 138.320842z m662.581894-6.440421h164.028632c41.795368 0 64.323368-16.087579 70.763789-57.882947 3.206737-19.294316 9.647158-38.615579 12.853895-54.703158 9.647158-41.768421 0-64.296421-48.235789-64.296421h-90.058106c0-70.763789 6.413474-73.997474 61.116632-73.997474h67.530105c35.381895 3.233684 48.235789-9.647158 41.822316-51.469473-57.909895 0-119.026526-3.206737-176.909474 3.233684-22.501053 3.233684-45.002105 28.941474-57.882947 51.469474-12.880842 19.294316-9.647158 45.002105-16.087579 64.323368-9.647158 38.588632 9.647158 54.676211 45.002105 57.882947h99.705264c3.233684 51.469474-6.413474 83.644632-61.089685 77.204211-25.734737-3.233684-48.235789 0-73.970526 0-28.941474-6.440421-41.822316 6.440421-38.588632 48.235789z m28.941474-305.55621c-57.909895 0-112.586105-3.206737-170.469053 3.233684-19.294316 3.206737-45.029053 22.501053-48.235789 38.588632-22.528 83.617684-41.822316 170.469053-61.116632 260.527157h67.530106c-3.206737-99.705263 38.615579-147.941053 141.527579-118.999578 3.233684-22.528 3.233684-35.381895 6.440421-54.703158h-106.145685c-3.233684-51.469474 12.853895-80.384 64.323369-73.970527 32.175158 3.233684 64.323368 0 99.705263 0 0-22.501053 3.233684-35.381895 6.440421-54.67621z" fill="#000000" p-id="4200"></path><path d="M1102.147368 411.432421c-35.354947 12.880842-70.736842 16.087579-77.177263 28.941474-22.501053 67.557053-35.381895 141.527579-54.67621 228.378947 35.381895-12.880842 73.970526-19.321263 77.20421-32.175158 22.501053-67.530105 35.354947-138.293895 54.676211-225.145263z" fill="#FFFFFF" p-id="4201"></path><path d="M896.323368 771.664842c61.116632 9.647158 70.763789-6.440421 70.76379-93.264842-61.116632-6.440421-67.557053 3.206737-70.76379 93.264842z m-331.290947-266.967579c-25.734737 45.029053-41.795368 80.410947-61.116632 115.792842h73.997474a2529.576421 2529.576421 0 0 0-12.880842-115.792842z m-498.526316-35.354947c-12.853895 32.148211-28.941474 57.882947-22.528 70.736842 12.880842 22.528 38.615579 35.381895 61.116632 54.703158l16.087579-16.087579c-16.087579-32.175158-32.175158-61.116632-54.676211-109.352421zM1504.202105 755.577263c0 6.440421 3.233684 12.880842 3.233684 19.294316 90.031158 9.647158 90.031158 9.647158 96.471579-32.148211-32.148211 6.440421-64.323368 9.647158-99.705263 12.853895z" fill="#000000" p-id="4202"></path><path d="M259.503158 224.875789c22.501053-22.501053 41.795368-51.469474 70.736842-70.736842 64.323368-41.822316 109.352421-112.586105 189.763368-122.233263 25.734737-3.233684 57.909895-6.440421 77.204211 3.233684 54.676211 32.148211 102.938947 70.736842 157.58821 112.559158-16.087579 12.853895-25.734737 22.501053-38.588631 32.148211 12.853895 9.674105 22.501053 16.087579 35.381895 25.734737-12.880842 6.467368-22.528 9.647158-38.588632 16.087579 22.501053 12.880842 38.588632 22.528 54.676211 32.175158-12.880842-54.703158 28.941474-83.644632 70.736842-115.792843 45.029053 45.002105 54.703158 160.821895 16.087579 221.911579-57.882947 96.498526-144.707368 57.909895-231.558737 35.381895-3.233684 25.734737-3.233684 48.235789-6.467369 77.204211 25.761684-3.233684 41.822316-6.440421 61.143579-9.647158-67.557053 67.530105-93.291789-38.588632-141.527579-28.941474 9.647158 70.736842-22.528 128.646737-67.557052 176.882526-19.294316 19.294316-38.588632 38.588632-64.323369 54.703158-9.647158 6.413474-35.381895 6.413474-41.795368-3.233684-16.087579-16.087579-25.734737-38.588632-41.822316-61.116632 22.528-16.087579 41.822316-32.148211 70.76379-54.67621H256.269474c-9.647158 25.734737-22.528 51.469474-25.734737 77.20421-6.440421 61.089684-48.235789 35.381895-77.177263 32.148211-41.822316-6.440421-22.528-35.381895-25.734737-57.882947 0-28.941474-9.647158-61.116632-22.528-86.851369-57.882947-118.999579-41.795368-231.558737 54.703158-299.115789 32.148211-22.501053 70.736842-35.381895 112.559158-41.822316-9.647158 16.087579-19.294316 28.968421-25.734737 45.029053-61.116632 57.909895-64.323368 80.410947-22.528 151.174736 6.467368 9.647158 9.647158 22.528 9.647158 32.175158 0 54.676211 51.469474 86.824421 102.938947 67.530106 16.087579-6.440421 32.148211-19.294316 51.469474-25.734737 77.177263-35.381895 86.824421-51.469474 73.970526-131.853474-3.233684-25.734737-9.647158-54.703158-16.087579-80.410947-6.440421 32.148211 0 64.323368-3.233684 96.471579 0 28.968421-3.206737 64.350316-19.267369 80.410947-28.968421 22.528-67.557053 35.381895-102.938947 48.235789-16.087579 3.233684-41.822316-6.413474-54.67621-16.060631-6.440421-6.440421-6.440421-25.734737-6.440421-41.822316 0-9.647158 6.467368-22.501053 12.880842-32.14821-45.029053-9.647158-67.557053-41.822316-51.469474-77.204211 12.853895-19.294316 25.734737-38.588632 38.588632-61.116632z" fill="#F3FC00" p-id="4203"></path><path d="M1304.791579 392.138105c-6.440421-61.116632 16.087579-80.410947 67.557053-77.20421 77.177263 3.233684 157.588211 0 234.792421 0 57.882947 0 77.177263 25.734737 64.323368 83.644631-16.087579 70.763789-32.175158 138.293895-45.029053 209.057685-6.467368 28.941474-19.294316 41.795368-48.235789 38.588631-83.644632-3.233684-167.262316 0-250.88 0-67.557053 0-83.644632-25.734737-70.76379-90.058105 22.501053-102.938947 38.588632-112.559158 141.500632-112.559158 45.029053 0 86.851368 3.206737 131.880421 0 16.087579 0 28.941474-12.880842 45.029053-22.528-16.087579-9.647158-32.175158-28.941474-48.23579-28.941474-54.703158-3.233684-109.352421 0-160.821894 0H1304.791579z m250.88 147.941053c-3.233684-6.413474-6.440421-12.853895-12.880842-19.294316-51.469474 0-99.705263-3.233684-151.174737 0-12.853895 0-22.501053 19.294316-35.354947 28.941474 12.853895 6.467368 25.734737 16.087579 38.588631 16.087579 38.588632 3.233684 77.204211 3.233684 115.792842 0 16.087579 0 32.148211-16.087579 45.002106-25.734737z m1247.932632 212.291368l67.530105-308.762947c28.968421-122.233263 28.968421-122.233263 154.408421-122.233263h151.174737c54.649263 0 73.943579 25.734737 64.296421 77.20421-12.853895 61.089684-25.707789 118.999579-38.588632 180.116211-12.853895 51.469474-45.002105 77.177263-96.471579 77.177263-48.235789 0-93.291789 3.233684-141.527579 0-35.381895-3.233684-48.235789 9.647158-54.703158 45.029053-19.267368 67.557053-25.707789 70.763789-106.118736 51.469473z m131.880421-180.11621c51.469474 0 93.237895 3.233684 135.087157 0 16.060632 0 35.354947-16.087579 45.002106-28.941474 54.703158-106.145684 32.175158-144.734316-83.617684-144.734316-12.853895 0-25.734737-3.233684-35.381895 0s-22.501053 12.853895-25.734737 19.294316c-12.853895 48.235789-25.707789 96.471579-35.354947 154.381474zM2096.020211 212.021895C2067.051789 350.315789 2034.903579 488.636632 2002.728421 623.723789c-3.233684 9.647158-22.501053 22.501053-35.381895 22.501053-86.824421 0-170.442105 3.233684-257.293473 0-48.235789 0-64.323368-25.734737-54.703158-73.970526 12.880842-61.116632 25.761684-118.999579 38.615579-180.116211 12.880842-51.469474 41.822316-77.204211 96.471579-77.20421 45.056 0 90.085053-3.206737 135.114105 0 38.588632 3.233684 54.676211-9.647158 64.323368-48.23579 19.294316-73.970526 22.501053-73.970526 106.145685-54.67621z m-135.087158 186.556631c-141.527579-28.941474-176.909474-12.880842-196.20379 96.471579-12.853895 67.557053-9.647158 73.997474 64.323369 73.997474 19.294316 0 41.822316 3.206737 61.116631 0 16.087579-3.233684 35.381895-16.087579 38.588632-28.968421 16.087579-45.002105 22.528-90.058105 32.175158-141.500632z m324.850526-80.410947h115.765895c41.822316 0 64.350316 22.501053 54.703158 64.323368-12.880842 70.763789-25.734737 141.527579-45.029053 209.057685C2398.315789 630.137263 2366.194526 649.431579 2321.165474 649.431579H2102.433684c-51.469474 0-70.736842-22.501053-64.323368-70.736842 9.647158-64.323368 25.734737-128.673684 41.822316-192.997053 12.853895-41.795368 45.002105-64.323368 90.058105-64.323368 41.795368-3.233684 80.410947-3.233684 115.792842-3.233684z m-54.703158 254.086737c93.291789 0 96.498526 0 112.586105-73.970527 25.734737-106.145684 25.734737-106.145684-86.851368-102.938947-83.617684 0-86.824421 0-102.912 83.644632-22.501053 93.237895-22.501053 93.237895 77.20421 93.237894zM2610.661053 649.431579H2501.254737c-51.469474-3.206737-70.736842-25.707789-61.089684-73.970526 12.853895-64.323368 25.734737-125.44 41.795368-189.763369 12.880842-45.002105 41.822316-67.530105 86.851368-67.530105h231.585685c48.235789 0 67.530105 28.941474 57.882947 73.970526-12.853895 54.676211-22.501053 109.352421-35.381895 164.028632-16.087579 67.557053-45.002105 90.058105-112.559158 93.264842h-99.705263z m57.882947-254.086737c-93.264842 0-135.087158 48.235789-125.44 144.734316 0 12.880842 16.087579 28.968421 25.734737 32.175158 106.145684 28.941474 160.821895 0 183.322947-106.145684 12.880842-61.116632 9.647158-67.530105-57.882947-70.76379h-25.734737z m-1540.634947 244.439579c12.880842-57.882947 25.734737-118.999579 38.615579-176.882526 12.853895-54.703158 3.233684-67.557053-51.469474-64.323369-128.646737 3.233684-102.938947-22.528-131.880421 106.118737-6.413474 25.734737-12.853895 51.469474-16.060632 77.204211-16.087579 77.204211-16.087579 77.204211-102.938947 64.323368 9.647158-48.235789 19.294316-96.471579 32.175158-144.707368 16.087579-73.997474 32.148211-151.174737 48.235789-225.172211 16.087579-73.970526 19.294316-77.177263 102.938948-57.882947-3.233684 16.087579-6.467368 32.148211-9.674106 51.469473-3.206737 16.060632-6.413474 32.148211-9.647158 57.882948h183.349895c57.882947 0 73.970526 22.501053 64.323369 80.410947l-38.588632 183.322948c-22.528 64.323368-22.528 67.557053-109.379368 48.235789z" fill="#5ECEF9" p-id="4204"></path><path d="M1076.439579 977.515789c22.501053-96.471579 38.588632-183.349895 61.116632-273.381052 3.206737-12.880842 22.501053-28.968421 32.14821-28.968421 54.703158-3.206737 109.352421-3.206737 160.821895 0 38.588632 0 54.676211 19.294316 45.002105 57.909895-16.060632 67.530105-25.707789 135.087158-45.002105 199.410526-6.440421 19.294316-35.381895 41.795368-54.703158 45.002105-61.089684 3.233684-125.413053 0-199.410526 0z m77.177263-54.703157c118.999579 16.114526 122.233263 16.114526 141.527579-90.031158 3.233684-16.087579 6.440421-35.381895 12.853895-51.469474 6.467368-22.501053 12.880842-51.469474-22.501053-51.469474-32.175158 0-77.204211-25.707789-93.264842 22.528-19.321263 54.676211-25.734737 109.352421-38.615579 170.469053z m-189.763368 64.350315c9.647158-51.469474 16.087579-86.851368 25.734737-135.087158-41.795368 0-80.410947-9.647158-112.559158 3.233685-19.294316 6.413474-32.175158 48.235789-38.615579 73.943579-6.413474 45.029053-25.707789 57.909895-70.736842 41.822315 19.294316-93.264842 38.588632-186.556632 64.323368-276.614736 3.233684-12.853895 35.381895-16.060632 61.089684-28.941474-9.647158 51.469474-16.060632 90.058105-25.707789 135.087158 41.795368 0 80.410947 9.647158 115.765894-3.233684 19.321263-6.413474 28.968421-45.002105 35.381895-70.736843 12.880842-48.235789 12.880842-51.469474 73.997474-45.029052-22.528 96.471579-38.615579 189.763368-64.350316 283.02821-6.413474 9.647158-35.354947 12.880842-64.323368 22.528z m662.581894-6.440421c-3.233684-41.795368 12.853895-54.676211 45.002106-51.469473 25.734737 3.233684 48.262737-3.206737 73.997473 0 54.676211 6.467368 64.323368-25.707789 61.116632-77.177264h-99.705263c-38.615579 0-54.703158-16.087579-45.029053-57.909894 6.413474-22.501053 3.206737-48.235789 16.060632-64.323369 12.880842-22.501053 35.381895-48.235789 57.909894-51.469473 57.882947-6.413474 118.999579-3.206737 176.882527-3.206737 9.647158 38.615579-6.413474 51.469474-41.795369 51.469473H1803.317895c-54.676211 0-61.116632 3.233684-61.116632 73.970527h90.058105c45.029053 0 57.909895 22.528 48.23579 64.323368-6.413474 19.294316-9.620211 35.381895-12.853895 54.703158-6.413474 41.795368-32.148211 61.089684-70.736842 57.882947-61.116632 0-115.792842 3.233684-170.469053 3.233685z m28.941474-305.55621c-3.233684 19.294316-6.440421 32.175158-6.440421 51.469473-32.148211 0-67.530105 3.233684-99.705263 0-51.469474-3.233684-67.530105 25.734737-64.323369 73.970527h106.145685c-3.233684 19.294316-3.233684 32.175158-6.440421 54.703158-102.938947-28.968421-144.734316 19.267368-141.527579 118.972631h-67.530106c19.294316-86.824421 38.588632-173.675789 61.116632-260.50021 3.206737-16.087579 32.148211-38.615579 48.235789-38.615579 54.676211-3.206737 112.559158 0 170.469053 0z" fill="#F0FD03" p-id="4205"></path><path d="M896.323368 771.664842c3.233684-90.058105 9.647158-99.705263 70.76379-93.264842 3.206737 90.058105-9.647158 102.938947-70.76379 93.264842z" fill="#FFFFFF" p-id="4206"></path><path d="M565.032421 532.399158c3.233684 80.276211 9.647158 143.36 12.880842 206.416842H503.915789c19.321263-63.056842 38.615579-120.427789 61.116632-206.416842z m-498.526316-63.056842c22.501053 85.989053 38.588632 137.593263 54.676211 194.937263L105.094737 692.924632c-22.501053-28.645053-48.235789-57.317053-61.116632-97.468632-6.413474-22.905263 12.880842-68.796632 22.528-126.113684z" fill="#F3FC00" p-id="4207"></path><path d="M1504.202105 755.604211c32.175158-3.233684 67.557053-6.467368 102.938948-12.880843-6.467368 41.795368-6.467368 41.795368-96.498527 32.148211-3.233684-6.413474-3.233684-12.853895-6.440421-19.294316z" fill="#FFFFFF" p-id="4208"></path><path d="M259.503158 224.875789c-12.880842 22.528-25.761684 41.822316-35.408842 64.350316-16.060632 35.381895 6.467368 64.323368 51.469473 77.177263-3.233684 12.880842-12.853895 22.528-12.853894 32.175158 0 12.853895-3.233684 35.381895 6.413473 41.795369 16.087579 9.647158 38.615579 19.294316 54.703158 16.087579 35.354947-9.647158 77.177263-22.501053 102.912-48.23579 16.087579-16.087579 19.294316-51.469474 19.294316-80.410947 0-32.175158-3.233684-64.323368 3.233684-96.471579 6.413474 25.707789 12.853895 54.649263 16.060632 80.384 12.880842 83.617684 3.233684 99.705263-73.970526 131.880421-16.087579 6.413474-32.175158 19.294316-51.469474 25.734737-51.469474 22.501053-102.938947-12.880842-102.938947-67.557053 0-9.647158-3.206737-22.501053-9.620211-32.14821-38.588632-70.763789-35.381895-93.291789 22.501053-151.174737 6.440421 3.233684 6.440421 3.233684 9.647158 6.413473z" fill="#000000" p-id="4209"></path><path d="M1459.2 588.341895c-19.321263 0-41.822316 0-61.143579-3.233684-12.853895 0-22.501053-6.413474-32.14821-12.853895-3.233684-3.233684-6.440421-3.233684-9.647158-6.440421-6.440421-3.233684-9.647158-6.413474-9.647158-12.853895s0-9.647158 6.413473-12.880842l9.647158-9.647158c9.674105-9.647158 19.321263-22.501053 35.381895-22.501053 19.321263 0 41.822316-3.233684 70.76379-3.233684h80.410947c6.440421 0 9.647158 3.233684 12.880842 6.467369l12.853895 19.267368c3.233684 6.440421 3.233684 16.087579-3.233684 22.528-3.206737 3.233684-9.620211 6.440421-12.853895 9.647158-9.647158 9.647158-22.501053 19.294316-38.588632 22.501053-22.528 0-41.822316 3.233684-61.116631 3.233684z" fill="#FFFFFF" p-id="4210"></path><path d="M1462.379789 520.784842h80.410948c3.233684 6.440421 6.467368 12.880842 12.880842 19.294316-12.880842 9.647158-28.941474 25.734737-41.822316 28.968421-19.294316 3.206737-35.381895 3.206737-54.67621 3.206737s-41.795368 0-61.116632-3.233684c-12.853895 0-25.707789-9.620211-38.588632-16.060632 12.880842-9.647158 22.528-28.941474 35.381895-28.941474 22.528-3.233684 45.029053-3.233684 67.530105-3.233684m0-32.14821c-28.941474 0-51.469474 0-70.736842 3.206736-22.528 0-35.381895 16.087579-45.029052 28.941474-3.233684 3.233684-6.440421 6.440421-6.440421 9.647158-6.440421 6.440421-12.853895 19.294316-9.647158 28.968421 0 9.647158 9.647158 19.294316 19.294316 25.70779 3.233684 0 6.440421 3.233684 9.647157 6.467368a102.938947 102.938947 0 0 0 41.822316 16.060632c16.087579 0 38.588632 3.233684 64.323369 3.233684 22.501053 0 38.588632 0 57.882947-3.233684 19.294316-3.233684 35.381895-16.087579 48.23579-25.734737l9.674105-9.647158c12.853895-9.647158 19.294316-28.941474 9.647158-41.822316l-6.440421-9.647158-6.440421-9.647158c-6.413474-9.647158-16.060632-16.087579-25.734737-16.087579h-38.588632c-22.501053-6.413474-35.381895-6.413474-51.469474-6.413473z m1473.104843 83.617684c12.853895-57.882947 22.501053-106.145684 35.354947-154.408421 3.233684-9.620211 16.087579-16.060632 25.734737-19.267369 9.647158-3.233684 22.528 0 35.381895 0 115.792842 0 138.320842 38.588632 83.617684 144.707369-6.413474 12.880842-28.941474 28.968421-45.002106 28.968421-41.822316 3.233684-83.644632 0-135.087157 0z m38.588631-32.175158c64.323368 12.880842 86.824421-19.294316 77.177263-112.559158-61.089684-9.647158-70.736842 6.440421-77.177263 112.559158z m-1013.14021-141.500632c-9.647158 48.235789-19.294316 96.471579-32.175158 141.500632-3.233684 12.880842-25.734737 25.734737-38.588632 28.968421-19.294316 6.413474-41.822316 0-61.116631 0-73.970526 0-77.177263-3.233684-64.323369-73.997474 19.294316-106.118737 57.882947-125.413053 196.176842-96.471579z m-86.851369 28.941474c-67.530105-12.880842-67.530105-12.880842-83.617684 106.145684 67.530105 16.060632 70.763789 12.853895 83.617684-106.172631z m357.025684 144.707368c-96.498526 0-96.498526 0-77.20421-93.237894 16.087579-80.410947 19.294316-83.644632 102.938947-83.644632 109.352421 0 109.352421 0 86.824421 102.938947-19.294316 73.970526-19.294316 73.970526-112.559158 73.970527z m45.002106-141.473684c-83.617684-19.321263-112.559158 12.853895-96.471579 109.325474 83.617684 9.647158 90.058105 0 96.471579-109.352421z m392.407579-35.408842h25.734736c64.323368 0 70.763789 6.467368 57.882948 70.76379-22.501053 106.145684-73.970526 135.087158-183.322948 106.145684-12.853895-3.233684-25.734737-19.294316-25.734736-32.175158-9.647158-96.471579 32.175158-144.707368 125.44-144.707369z m-93.264842 144.734316c83.617684 9.647158 109.352421-19.294316 96.471578-112.559158-83.617684-9.647158-96.471579 3.233684-96.471578 112.559158zM1153.616842 922.839579c12.880842-57.909895 19.294316-115.792842 38.615579-170.469053 16.060632-48.235789 64.323368-22.528 93.237895-22.528 35.408842 0 25.761684 28.968421 22.528 51.469474-3.206737 16.087579-9.647158 32.175158-12.853895 51.469474-19.294316 102.938947-22.528 106.145684-141.527579 90.058105z m25.734737-22.528c48.235789 6.440421 73.970526-48.235789 70.763789-147.941053-41.822316-9.647158-35.381895-22.528-70.763789 147.941053z" fill="#000000" p-id="4211"></path><path d="M2974.073263 540.079158c6.440421-106.118737 16.087579-118.999579 77.177263-112.559158 12.880842 93.264842-9.647158 122.206316-77.177263 112.559158z m-1099.991579-112.559158c-12.853895 118.999579-16.087579 125.44-83.617684 106.145684 16.087579-119.026526 16.087579-119.026526 83.617684-106.172631z m402.054737 3.233684c-3.233684 112.559158-12.880842 122.206316-96.498526 109.325474-16.087579-96.471579 9.647158-128.646737 96.471579-109.352421z m299.11579 109.325474c0-109.352421 12.853895-122.206316 96.471578-112.559158 12.880842 93.264842-9.647158 122.206316-96.471578 112.559158z m-1395.873685 360.232421c35.354947-170.469053 28.914526-157.588211 70.736842-147.941053 3.233684 99.705263-19.294316 154.381474-70.763789 147.941053z" fill="#FFFFFF" p-id="4212"></path><path d="M635.796211 202.374737s-45.029053 0-48.23579 26.947368c0 0 9.647158-10.105263 48.23579-26.947368z" fill="#000000" p-id="4213"></path><path d="M603.621053 222.288842a13.473684 13.473684 0 1 0 26.947368 0 13.473684 13.473684 0 0 0-26.947368 0z" fill="#000000" p-id="4214"></path></svg>