<?xml version="1.0" standalone="no"?><!DOCTYPE svg PUBLIC "-//W3C//DTD SVG 1.1//EN" "http://www.w3.org/Graphics/SVG/1.1/DTD/svg11.dtd"><svg t="1737015057568" class="icon" viewBox="0 0 1966 1024" version="1.1" xmlns="http://www.w3.org/2000/svg" p-id="2804" xmlns:xlink="http://www.w3.org/1999/xlink" width="383.984375" height="200"><path d="M781.04576 182.72256c2.2528-2.17088 5.5296-1.3312 8.31488-1.14688 34.01728 3.8912 67.6864 11.93984 99.4304 24.90368 8.3968 3.072 15.42144 8.84736 23.67488 12.24704 15.38048 7.22944 30.55616 14.90944 45.38368 23.1424 12.82048 8.56064 25.94816 16.67072 39.89504 23.2448 14.68416-9.74848 25.21088-25.37472 42.04544-31.90784 11.20256-3.95264 23.04-7.168 35.0208-6.02112 13.23008 0.98304 27.3408 1.51552 38.85056 8.94976 19.37408 10.752 32.89088 28.91776 45.30176 46.77632 9.35936 13.45536 16.19968 28.3648 23.83872 42.8032 2.4576 4.93568 5.20192 10.24 4.34176 15.9744-12.22656 26.54208-20.992 54.9888-24.35072 84.0704 3.62496 5.44768 9.66656 8.704 13.7216 13.84448 6.3488 8.2944 8.0896 18.92352 13.06624 27.9552 5.5296 10.42432 11.22304 20.74624 16.36352 31.39584 6.02112 10.62912 4.5056 23.49056 3.072 35.10272 16.42496-0.14336 29.51168-11.71456 45.19936-14.7456 7.53664 0.12288 11.48928 8.23296 15.5648 13.5168 4.13696 4.9152 2.29376 11.55072 1.69984 17.3056a277.4016 277.4016 0 0 1-19.92704 65.59744c-8.11008 18.6368-18.47296 36.39296-31.68256 51.87584-13.312 12.26752-31.47776 18.432-49.39776 19.33312a101.45792 101.45792 0 0 1-63.20128-18.944c-5.5296 7.8848-11.50976 16.384-20.97152 19.7632-12.5952 4.48512-26.4192 1.72032-38.87104-1.96608-11.83744-5.9392-14.29504-19.98848-20.25472-30.47424-9.728 1.69984-19.39456-0.69632-29.10208-0.8192-3.8912-0.12288-5.57056 4.01408-7.82336 6.43072 7.70048 11.10016 14.06976 23.81824 25.53856 31.60064 8.54016 5.7344 17.83808 10.87488 28.2624 12.06272-14.0288 2.048-27.99616-2.29376-40.46848-8.31488-7.68-3.72736-13.55776-9.99424-19.90656-15.52384L983.04 680.2432l-0.02048 0.59392c-0.9216 13.02528 2.56 26.112 8.92928 37.43744 4.608 2.62144 9.9328 3.60448 14.86848 5.46816 10.8544 4.1984 22.67136 2.6624 33.9968 2.4576-11.83744 8.15104-27.2384 5.5296-40.7552 5.5296 3.95264 7.4752 7.35232 15.2576 10.6496 23.06048 3.11296 8.35584 14.11072 5.18144 20.8896 7.43424-5.67296 2.17088-11.91936 2.39616-17.36704 5.2224 2.82624 10.05568 14.2336 11.34592 23.04 12.14464 29.67552 1.7408 59.35104-0.67584 88.96512-2.048-33.25952 11.0592-66.27328 22.87616-99.7376 33.36192-14.70464 4.66944-30.37184 5.44768-45.6704 3.7888-49.90976-11.71456-97.21856-37.2736-131.85024-75.44832-10.30144-11.4688-18.35008-24.73984-24.8832-38.7072-18.7392-41.5744-26.58304-88.22784-20.66432-133.55008 3.31776-25.27232 14.06976-49.07008 28.8768-69.632 1.90464-2.41664 4.28032-4.44416 6.92224-5.98016 2.048-0.49152 4.15744-2.31424 3.39968-4.62848l-4.17792 1.3312c-4.66944 2.2528-9.68704 3.6864-14.62272 5.2224-18.8416 5.632-38.2976 10.71104-58.1632 10.0352a457.54368 457.54368 0 0 1-35.81952-2.56c-3.9936-0.7168-9.33888-0.86016-10.46528-5.69344-7.74144-18.432-13.18912-38.15424-24.8832-54.64064-11.8784-17.3056-28.4672-30.45376-42.02496-46.2848-14.45888-17.408-27.56608-37.94944-28.3648-61.2352-1.1264-18.3296 7.70048-35.0208 15.21664-51.11808 5.67296-10.26048 10.58816-22.87616 22.26176-27.58656 5.65248-2.62144 11.18208 1.4336 16.85504 1.57696 12.4928 0.38912 26.13248-0.2048 36.6592-7.74144 15.42144-11.24352 26.17344-27.3408 39.34208-40.8576 8.4992-8.51968 16.65024-17.6128 26.60352-24.4736z m-6.06208 18.24768c-7.29088 6.9632-13.312 15.1552-19.3536 23.16288-9.87136 13.7216-21.66784 26.3168-36.22912 35.1232-2.92864 1.06496-1.1264 3.64544 0.7168 4.608 31.78496 8.51968 58.94144 27.89376 87.7568 42.96704-23.42912-10.73152-46.91968-21.36064-71.12704-30.24896-22.69184-7.7824-46.87872-8.704-70.61504-9.56416-13.63968 13.59872-24.3712 30.39232-29.4912 49.07008-3.15392 21.62688 2.7648 44.29824 15.07328 62.27968 12.30848 18.67776 28.89728 33.87392 44.52352 49.70496 5.0176 5.38624 9.99424 11.0592 12.96384 17.87904 6.79936 15.52384 9.33888 32.8704 18.71872 47.26784 12.04224 0.65536 24.10496 0.24576 36.12672 1.14688 10.26048 0.512 20.70528 2.08896 30.88384-0.34816 15.5648-4.13696 30.9248-9.0112 46.2848-13.76256 40.26368-17.53088 83.2512-27.4432 126.03392-36.57728a162.65216 162.65216 0 0 0-5.03808 65.3312c1.59744 9.15456-0.28672 20.2752 7.2704 27.19744 12.1856 11.96032 29.0816 17.14176 45.11744 21.7088-5.8368 9.60512-11.38688 19.8656-12.36992 31.232-0.8192 12.04224 5.2224 23.4496 13.47584 31.80544 3.85024 4.21888 9.0112 7.35232 11.6736 12.55424 4.4032 8.192 9.216 16.19968 12.73856 24.84224 4.9152 10.81344 15.1552 20.97152 27.77088 20.64384 13.312 0.7168 25.55904-6.90176 34.4064-16.26112-2.4576-2.06848-3.8912-7.90528-7.84384-6.28736-5.36576 4.15744-6.49216 11.6736-12.34944 15.40096-9.216 0.55296-17.89952-2.90816-25.8048-7.31136 3.70688 4.83328 9.5232 7.168 13.84448 11.28448-2.78528-0.08192-5.57056-0.12288-8.33536-0.45056-6.59456-0.45056-9.216-7.70048-11.42784-12.9024-1.9456-4.97664 2.4576-8.76544 5.03808-12.43136 7.168-9.23648 14.70464-19.10784 16.384-31.00672 7.5776 9.44128 15.1552 19.0464 24.69888 26.624 7.168 6.81984 15.07328 12.9024 24.08448 17.1008 16.2816 9.97376 35.77856 16.65024 54.96832 13.02528 15.72864-0.53248 29.24544-10.48576 39.40352-21.77024 12.4928-14.2336 21.8112-30.84288 30.5152-47.55456 7.29088-16.87552 12.8-34.69312 14.9504-53.00224 0.43008-8.192 1.2288-19.59936-7.7824-23.552-10.87488 0.83968-18.432 10.21952-29.14304 11.44832-7.33184 0.45056-14.70464-0.1024-22.03648 0.28672a483.65568 483.65568 0 0 1-13.312 33.9968c-6.0416 7.5776-13.0048 14.4384-19.3536 21.74976 2.62144-4.07552 5.65248-7.8848 8.27392-11.96032 5.03808-7.49568 7.8848-16.1792 11.91936-24.1664-4.34176-3.15392-10.1376-2.92864-15.1552-2.21184-11.24352 5.69344-17.38752 16.97792-25.27232 26.17344 5.50912-9.03168 10.50624-18.45248 16.83456-26.95168 2.10944-3.64544 6.63552-3.54304 10.24-4.54656-4.5056-1.6384-9.37984-1.72032-13.98784-2.94912-9.216 2.08896-15.19616 9.8304-21.85216 15.85152 3.64544-5.79584 7.68-11.3664 12.02176-16.67072 1.80224-1.86368 3.584-4.85376 6.67648-4.17792 8.21248 0.4096 16.26112 2.3552 24.24832 4.21888l0.4096 4.05504 5.24288 2.37568a94.0032 94.0032 0 0 0 3.8912-10.28096c-6.28736-0.8192-12.00128-3.72736-17.8176-6.08256 2.94912-0.06144 5.89824-0.3072 8.84736-0.55296 0.4096-3.29728 3.60448-8.45824-0.8192-10.28096a86.54848 86.54848 0 0 0-7.9872-2.1504l2.10944-1.88416-0.6144-3.6864c6.0416 0.73728 12.73856-0.53248 18.16576 2.99008 1.76128 1.82272 2.21184 4.44416 3.2768 6.69696 3.6864-2.92864 2.4576-7.9872 2.12992-12.02176-0.75776-4.87424-0.26624-10.15808-3.05152-14.49984-5.0176-8.31488-9.35936-16.9984-13.55776-25.74336-2.99008 0.4096-4.87424-0.63488-5.69344-3.13344l4.58752-0.06144c-4.83328-7.8848-7.9872-16.65024-11.55072-25.12896-2.49856-5.632-2.2528-12.9024-7.80288-16.6912-0.14336 3.95264-0.16384 7.90528-0.32768 11.8784-5.7344-12.0832-8.74496-26.17344-6.9632-39.60832 6.0416-22.26176 17.1008-43.15136 19.98848-66.21184 1.78176-11.8784-5.28384-22.24128-10.89536-32.01024a320.26624 320.26624 0 0 0-51.26144-64.6144c-5.14048-5.55008-13.16864-5.67296-19.6608-8.74496 0.90112 3.19488 2.99008 5.7344 5.12 8.192-11.30496-2.60096-21.85216-9.1136-33.85344-8.00768-22.8352 0.6144-41.0624 16.40448-55.66464 32.39936-1.6384 1.72032 1.61792 3.01056 2.6624 3.95264 16.52736 9.87136 32.58368 20.70528 46.96064 33.5872 2.82624 2.84672 6.49216 5.36576 7.4752 9.48224 5.40672 21.6064 9.728 43.49952 15.40096 65.04448 1.67936 11.71456 12.9024 18.30912 22.40512 23.40864-6.43072 0.7168-12.41088-2.4576-18.432-4.13696 1.10592 7.65952 1.59744 15.5648 4.23936 22.9376-0.77824-1.47456-1.49504-2.9696-2.4576-4.32128-8.06912-33.11616-17.3056-66.33472-32.37888-97.03424-13.37344-15.72864-30.14656-28.34432-47.5136-39.38304-9.66656-4.9152-19.2512-10.0352-28.93824-14.97088-33.42336-16.54784-65.04448-36.7616-99.88096-50.40128a367.75936 367.75936 0 0 0-76.8-21.72928c-9.50272-1.8432-18.71872 2.82624-26.74688 7.3728z m80.54784 284.16c-5.61152 2.78528-11.264 5.81632-15.93344 10.0352 0.28672 7.31136 2.00704 14.5408 3.74784 21.62688 5.28384 33.5872 21.77024 66.47808 49.50016 87.12192 27.5456 20.13184 55.35744 40.48896 86.28224 55.17312 1.88416-3.33824 3.13344-6.9632 4.58752-10.48576-17.44896-7.72096-28.20096-24.65792-37.2736-40.6528-24.51456-42.496-47.7184-86.46656-60.60032-134.08256-10.40384 2.82624-20.95104 5.77536-30.3104 11.264z m-47.67744 73.50272c-1.2288 10.752-3.13344 21.44256-2.70336 32.29696 0.4096 10.752-0.98304 21.93408 2.048 32.3584 9.5232 7.94624 18.59584 16.42496 28.16 24.30976 29.184 26.37824 67.09248 40.07936 104.57088 49.9712 9.35936 2.10944 18.55488 5.20192 28.20096 5.95968a76.8 76.8 0 0 1 5.5296-30.14656c-8.31488-1.78176-16.7936-2.78528-25.04704-5.03808-45.34272-11.776-86.17984-38.7072-116.69504-74.0352-7.33184-9.27744-14.68416-18.75968-19.70176-29.55264-1.2288-2.17088-1.7408-5.16096-4.36224-6.12352z m12.71808 125.17376c6.59456 14.39744 12.4928 29.24544 21.52448 42.37312 2.9696 4.34176 6.38976 8.74496 11.4688 10.752 13.08672 6.22592 26.4192 12.41088 40.5504 15.89248 16.81408 6.02112 34.816 8.33536 52.57216 9.8304 16.22016 0.34816 32.89088 0.57344 48.68096-3.13344-5.75488-8.72448-11.6736-17.408-16.71168-26.56256-45.75232-0.4096-90.05056-14.88896-130.9696-34.42688-9.07264-4.8128-18.26816-9.46176-27.11552-14.7456z m106.7008 105.34912c-2.6624 0-5.34528 0.08192-8.02816 0.2048a156.18048 156.18048 0 0 0 73.56416 22.85568c8.17152 0.1024 16.9984 0.36864 24.22784-4.096 2.56-2.048 4.3008-5.59104 3.2768-8.84736-2.12992-8.51968-9.54368-14.1312-13.312-21.87264-24.73984 12.02176-52.92032 11.0592-79.70816 11.75552z" fill="#020202" p-id="2805" data-spm-anchor-id="a313x.search_index.0.i0.189c3a81ffij2L" class="selected"></path><path d="M1098.71104 263.9872c2.19136 1.4336 4.13696 3.21536 5.67296 5.34528 8.21248 10.9568 15.62624 22.528 22.1184 34.6112 2.3552 4.21888 2.7648 9.07264 3.6864 13.70112 2.10944 11.8784 5.98016 23.47008 6.90176 35.55328l-1.16736-4.3008c-6.2464-20.2752-11.01824-42.25024-25.76384-58.368-6.9632-7.20896-9.25696-17.14176-11.4688-26.54208z m-189.7472 67.9936c12.10368-0.12288 24.18688 0.32768 36.29056 0.45056 17.6128 0.45056 35.4304 1.10592 52.6336 5.38624 3.4816 0.53248 6.10304 3.01056 8.25344 5.632 16.60928 19.39456 21.11488 45.32224 31.80544 67.82976l-1.76128-0.90112c-7.5776-9.6256-13.02528-20.6848-20.13184-30.6176-3.95264-5.40672-8.4992-10.93632-14.86848-13.43488-13.55776-2.2528-27.58656-6.49216-41.1648-2.1504 8.192-4.608 16.32256-10.71104 25.98912-11.264 4.5056-0.53248 10.5472 3.64544 13.5168-1.37216a96.93184 96.93184 0 0 0-21.9136-8.192c-22.6304-5.30432-45.89568-6.77888-68.64896-11.38688z m169.65632 134.2464c10.01472-1.72032 20.2752-2.08896 30.37184-0.73728-6.7584 1.59744-13.88544 1.6384-20.33664 4.42368-6.77888 2.78528-12.16512 7.94624-16.896 13.39392 1.49504-5.89824 2.58048-12.47232 6.8608-17.08032z m-6.4512 51.4048c14.52032-11.22304 34.89792-16.30208 52.34688-9.3184-2.29376 0.53248-4.608 1.024-6.92224 1.47456 1.536 6.00064 3.1744 12.10368 2.37568 18.37056 4.5056 0.6144 9.0112 1.65888 13.06624 3.76832-9.17504-0.36864-18.2272 1.536-27.38176 1.47456-4.5056 0-8.97024 0.69632-13.2096 2.29376l1.1264-4.38272 0.65536-0.9216 7.76192 0.14336c-0.36864-3.3792 0.75776-7.9872-2.8672-9.97376a12.55424 12.55424 0 0 0-9.23648 0c-3.8912 2.51904-1.51552 7.90528-1.98656 11.69408l0.75776 0.75776 2.68288 2.82624c-3.87072 1.08544-7.70048 2.31424-11.53024 3.4816 2.19136-1.88416 4.44416-3.72736 6.7584-5.50912-0.86016-5.85728-2.12992-11.65312-2.29376-17.57184-4.03456 0.6144-8.06912 1.06496-12.10368 1.37216z m149.44256 31.70304c11.18208 0.36864 21.42208-4.608 30.98624-9.78944-4.44416 7.168-12.9024 10.28096-20.50048 12.98432-9.23648 3.33824-20.48 0.24576-26.2144-7.84384 5.18144 1.69984 9.99424 5.16096 15.72864 4.64896z m-168.0384 75.20256c1.3312-6.08256 4.21888-13.1072 10.6496-15.17568 3.21536 0.2048 7.72096-1.08544 9.66656 2.41664-8.6016 0.94208-13.84448 7.9872-20.31616 12.75904z m12.53376 78.60224c10.40384-0.04096 20.7872-0.02048 31.19104-0.02048 0 17.6128-0.1024 35.26656 0.04096 52.89984a614.4 614.4 0 0 1 11.22304 0c0.08192-17.65376 0.06144-35.28704 0-52.9408 10.48576 0.1024 20.97152-0.02048 31.45728 0.1024l-0.16384 2.80576c-9.46176 0.06144-18.92352 0.02048-28.38528 0.12288 0.04096 16.77312-0.2048 33.52576 0.08192 50.29888 0.2048-16.6912 0-33.36192 0.14336-50.03264 9.4208-0.22528 18.8416-0.1024 28.2624-0.16384-0.04096 20.19328-0.08192 40.3456 0 60.55936 0.1024 2.49856-0.34816 4.97664-0.9216 7.41376-11.20256-0.67584-22.38464 0.63488-33.5872 0.86016-13.1072 1.04448-26.25536 0.49152-39.36256 1.04448 0.04096-24.33024 0-48.64 0-72.94976z m86.97856 0c10.0352-0.02048 20.00896 0.06144 30.02368-0.06144-0.2048 46.14144 0.12288 92.30336-0.16384 138.4448-9.89184-0.4096-19.7632-0.24576-29.65504-0.12288-0.43008-46.08-0.04096-92.16-0.2048-138.26048z m40.2432-0.06144c10.71104 0.1024 21.42208 0.02048 32.1536 0.02048 3.1744 19.51744 5.69344 39.1168 8.8064 58.63424-0.02048 2.47808 2.9696 5.30432 5.34528 3.85024 2.39616-0.8192 2.49856-3.74784 3.05152-5.81632 2.49856-18.92352 5.7344-37.70368 7.9872-56.6272 10.60864-0.08192 21.23776 0.06144 31.86688-0.1024-8.72448 46.08-17.42848 92.16-26.03008 138.24-12.288 0.12288-24.53504-0.28672-36.78208 0.22528-9.40032-46.01856-17.46944-92.32384-26.4192-138.4448z m101.21216 0c21.03296 0 42.04544 0.2048 63.0784-0.1024 0.26624 11.0592-0.14336 22.15936 0.24576 33.23904-12.63616 0.47104-25.2928-0.08192-37.888 0.3072 0.1024 5.98016 0.1024 11.9808-0.06144 17.96096 6.06208 0.26624 12.14464 0.2048 18.2272 0.2048-0.32768 11.07968 0.65536 22.2208-0.57344 33.28a273.69472 273.69472 0 0 0-17.55136-0.14336c0.04096 6.5536 0.04096 13.1072-0.04096 19.70176 12.61568 0.06144 25.23136 0.1024 37.82656 0.90112-0.18432 10.97728-0.12288 21.95456-0.02048 32.95232-21.01248-0.06144-42.02496-0.34816-63.03744 0.12288-0.4096-46.12096 0.04096-92.28288-0.2048-138.4448z m-185.9584 83.7632c10.48576-3.64544 20.82816-7.61856 31.25248-11.4688 0.02048 21.99552 0.38912 43.99104-0.18432 65.98656-10.30144-0.06144-20.60288-0.26624-30.88384 0.12288-0.36864-18.2272 0-36.41344-0.18432-54.64064z m-42.43456 14.41792c10.4448-3.44064 20.76672-7.20896 31.1296-10.8544-0.14336 16.9984 0.26624 33.9968-0.2048 50.97472-10.24-0.16384-20.48-0.16384-30.72 0-0.512-13.37344-0.16384-26.74688-0.2048-40.1408z" fill="#020202" p-id="2806"></path><path d="M774.9632 200.97024c8.04864-4.5056 17.26464-9.216 26.76736-7.3728 26.29632 4.44416 52.10112 11.75552 76.8 21.74976 34.816 13.63968 66.4576 33.85344 99.88096 50.3808 9.68704 4.95616 19.2512 10.09664 28.95872 14.99136 17.34656 11.0592 34.11968 23.6544 47.49312 39.38304 15.07328 30.72 24.30976 63.8976 32.37888 97.03424-25.3952-34.5088-45.79328-73.35936-77.94688-102.42048-4.3008-4.05504-9.8304-6.32832-15.1552-8.62208a1435.89376 1435.89376 0 0 0-149.1968-55.95136c-29.4912-9.56416-59.47392-17.53088-89.2928-26.0096 6.0416-8.02816 12.04224-16.19968 19.33312-23.1424z m318.42304 33.62816c6.49216 3.072 14.52032 3.19488 19.6608 8.74496 19.7632 19.18976 37.0688 40.98048 51.26144 64.6144 5.61152 9.76896 12.6976 20.11136 10.89536 32.01024-2.88768 23.06048-13.9264 43.95008-19.968 66.21184 1.88416-19.2512 4.46464-38.46144 5.2224-57.81504-0.57344-10.56768 0.55296-22.65088-6.16448-31.60064-18.51392-24.71936-36.4544-49.88928-55.78752-73.97376-2.12992-2.4576-4.21888-4.99712-5.12-8.192z" fill="#FDF2A4" p-id="2807"></path><path d="M1062.76864 246.272c14.06976-0.32768 26.2144 8.3968 35.9424 17.7152 2.19136 9.4208 4.5056 19.33312 11.44832 26.5216 14.7456 16.13824 19.51744 38.0928 25.76384 58.40896-4.5056-3.66592-5.12-9.80992-7.74144-14.68416-4.89472-9.78944-8.76544-20.25472-15.81056-28.75392-10.5472-14.58176-17.69472-31.66208-30.57664-44.544-5.36576-6.08256-12.32896-10.28096-19.02592-14.66368z m-235.4176 58.24512c34.65216 8.64256 69.38624 16.91648 104.09984 25.23136 4.38272 1.6384 10.71104-1.3312 13.80352 2.6624-12.0832-0.1024-24.18688-0.55296-36.29056-0.45056 22.7328 4.608 46.01856 6.08256 68.64896 11.40736 7.63904 1.69984 14.92992 4.68992 21.9136 8.192-2.9696 4.99712-9.0112 0.8192-13.5168 1.3312-9.66656 0.57344-17.8176 6.67648-26.0096 11.264 13.59872-4.32128 27.648-0.08192 41.1648 2.17088 6.38976 2.49856 10.93632 8.02816 14.88896 13.43488 7.10656 9.9328 12.55424 20.992 20.13184 30.6176 3.25632 9.33888 8.51968 17.73568 12.86144 26.56256-6.08256-5.3248-10.11712-12.51328-16.26112-17.77664-29.696-30.88384-73.1136-45.2608-115.22048-46.08l1.72032-1.72032c9.76896-2.80576 19.92704-4.97664 29.04064-9.58464 2.19136-3.3792 0.9216-7.65952 1.16736-11.40736a121.52832 121.52832 0 0 0-11.40736-3.6864c-31.68256-8.84736-62.03392-21.56544-92.40576-33.9968-6.08256-2.7648-12.96384-3.97312-18.3296-8.17152z m12.24704 190.64832c4.66944-4.21888 10.32192-7.24992 15.93344-10.0352a454.98368 454.98368 0 0 0-12.1856 31.66208c-1.7408-7.10656-3.4816-14.336-3.74784-21.62688z m-1.14688-7.08608l4.17792-1.3312c0.75776 2.31424-1.37216 4.13696-3.39968 4.62848l-0.77824-3.29728z m-30.59712 70.5536c2.62144 0.96256 3.13344 3.95264 4.36224 6.12352 5.0176 10.79296 12.36992 20.2752 19.70176 29.55264-0.55296 17.83808 1.10592 35.6352 3.44064 53.28896-9.56416-7.8848-18.6368-16.384-28.16-24.28928-3.03104-10.4448-1.6384-21.62688-2.048-32.3584-0.4096-10.87488 1.47456-21.56544 2.70336-32.31744z m175.24736 121.71264c0.47104 0.36864 1.39264 1.18784 1.90464 1.55648l-1.96608 0.2048 0.06144-1.76128z m-162.52928 3.46112c8.84736 5.26336 18.04288 9.89184 27.11552 14.72512 3.85024 9.8304 8.13056 19.61984 14.66368 28.01664 8.23296 11.20256 19.59936 19.68128 31.744 26.27584-14.1312-3.4816-27.4432-9.66656-40.5504-15.89248-5.05856-2.00704-8.47872-6.41024-11.44832-10.752-9.0112-13.1072-14.92992-27.97568-21.504-42.3936z m416.5632 72.9088l1.8432 0.06144c1.72032 3.42016-3.76832 3.25632-1.8432-0.06144z m-317.89056 32.6656c2.6624-0.14336 5.36576-0.2048 8.04864-0.2048 11.6736 8.33536 25.74336 12.3904 39.48544 15.9744 16.384 4.23936 33.4848 3.97312 50.25792 2.9696-7.20896 4.46464-16.05632 4.1984-24.22784 4.096a156.18048 156.18048 0 0 1-73.56416-22.8352z" fill="#FDF2A4" p-id="2808"></path><path d="M755.63008 224.13312c29.83936 8.47872 59.8016 16.44544 89.2928 26.0096a1435.91424 1435.91424 0 0 1 149.1968 55.95136c5.34528 2.29376 10.87488 4.56704 15.1552 8.62208 32.17408 29.06112 52.59264 67.91168 77.96736 102.4 0.96256 1.37216 1.67936 2.8672 2.4576 4.34176-2.64192-7.3728-3.13344-15.27808-4.23936-22.9376 6.02112 1.67936 12.00128 4.85376 18.432 4.13696-9.50272-5.09952-20.72576-11.6736-22.40512-23.40864-5.69344-21.54496-9.99424-43.43808-15.40096-65.04448-0.98304-4.11648-4.64896-6.63552-7.4752-9.46176-14.37696-12.9024-30.43328-23.7568-46.96064-33.60768-1.04448-0.94208-4.3008-2.23232-2.6624-3.95264 14.60224-15.9744 32.82944-31.78496 55.66464-32.39936 12.00128-1.10592 22.528 5.40672 33.85344 7.9872 19.33312 24.10496 37.2736 49.27488 55.78752 73.99424 6.71744 8.94976 5.59104 21.03296 6.144 31.60064-0.73728 19.3536-3.31776 38.56384-5.20192 57.81504-1.80224 13.43488 1.2288 27.52512 6.9632 39.60832 0.14336-3.97312 0.16384-7.92576 0.3072-11.8784 5.57056 3.7888 5.3248 11.0592 7.80288 16.6912 3.56352 8.47872 6.71744 17.24416 11.55072 25.12896l-4.58752 0.06144c0.8192 2.49856 2.70336 3.54304 5.69344 3.13344 4.1984 8.74496 8.54016 17.42848 13.55776 25.74336 2.78528 4.34176 2.29376 9.6256 3.05152 14.49984 0.34816 4.03456 1.57696 9.09312-2.12992 12.02176-1.06496-2.2528-1.51552-4.87424-3.2768-6.69696-5.4272-3.52256-12.12416-2.2528-18.18624-2.9696l0.6144 3.66592-2.08896 1.88416c2.68288 0.6144 5.36576 1.26976 7.9872 2.1504l-9.15456-1.26976c-1.024 3.54304-1.92512 7.10656-2.62144 10.71104l3.74784 1.39264c5.81632 2.3552 11.53024 5.24288 17.8176 6.08256a94.0032 94.0032 0 0 1-3.8912 10.28096l-5.24288-2.37568-0.4096-4.05504c-7.9872-1.86368-16.03584-3.82976-24.24832-4.21888-3.072-0.67584-4.87424 2.31424-6.67648 4.17792-4.34176 5.30432-8.37632 10.8544-12.02176 16.67072 6.656-6.02112 12.61568-13.76256 21.83168-15.85152 4.62848 1.2288 9.48224 1.3312 14.00832 2.94912-3.60448 1.00352-8.13056 0.90112-10.24 4.54656-6.3488 8.4992-11.32544 17.92-16.83456 26.95168 7.8848-9.19552 14.0288-20.48 25.27232-26.17344 5.0176-0.7168 10.81344-0.94208 15.1552 2.21184-4.03456 7.9872-6.88128 16.67072-11.91936 24.1664-2.62144 4.096-5.65248 7.8848-8.27392 11.96032 6.3488-7.31136 13.312-14.19264 19.3536-21.72928 4.99712-11.10016 9.17504-22.56896 13.312-33.9968 7.33184-0.4096 14.70464 0.14336 22.03648-0.3072 10.71104-1.2288 18.26816-10.60864 29.12256-11.44832 9.05216 3.95264 8.23296 15.36 7.7824 23.552-2.12992 18.30912-7.63904 36.12672-14.9504 53.00224-8.68352 16.71168-18.0224 33.32096-30.5152 47.55456-10.1376 11.28448-23.6544 21.23776-39.38304 21.77024-19.18976 3.62496-38.68672-3.05152-54.96832-13.02528-9.0112-4.1984-16.896-10.28096-24.08448-17.1008-9.56416-7.5776-17.1008-17.18272-24.69888-26.624-1.67936 11.89888-9.216 21.77024-16.384 31.00672-2.58048 3.6864-6.98368 7.45472-5.03808 12.43136 2.23232 5.20192 4.83328 12.45184 11.42784 12.9024 2.7648 0.32768 5.55008 0.36864 8.33536 0.45056-4.32128-4.13696-10.1376-6.4512-13.84448-11.28448 7.90528 4.4032 16.56832 7.86432 25.8048 7.31136 5.8368-3.70688 6.98368-11.24352 12.34944-15.40096 3.97312-1.61792 5.38624 4.21888 7.82336 6.28736-8.82688 9.35936-21.0944 16.9984-34.4064 16.26112-12.61568 0.32768-22.8352-9.8304-27.7504-20.64384-3.52256-8.64256-8.33536-16.62976-12.71808-24.84224-2.70336-5.20192-7.84384-8.33536-11.69408-12.55424-8.25344-8.35584-14.29504-19.7632-13.47584-31.80544 0.98304-11.3664 6.53312-21.62688 12.36992-31.21152-16.03584-4.58752-32.93184-9.76896-45.11744-21.72928-7.55712-6.94272-5.67296-18.0224-7.2704-27.19744a162.65216 162.65216 0 0 1 5.03808-65.3312c-42.78272 9.13408-85.77024 19.0464-126.01344 36.57728-15.40096 4.75136-30.76096 9.6256-46.30528 13.76256-10.17856 2.4576-20.62336 0.86016-30.88384 0.34816-12.02176-0.90112-24.08448-0.49152-36.12672-1.14688-9.37984-14.39744-11.91936-31.744-18.71872-47.26784-2.9696-6.84032-7.94624-12.4928-12.96384-17.87904-15.62624-15.83104-32.21504-31.0272-44.52352-49.70496-12.30848-17.98144-18.2272-40.6528-15.07328-62.27968 5.12-18.67776 15.85152-35.47136 29.4912-49.07008 23.7568 0.86016 47.9232 1.78176 70.61504 9.56416 24.20736 8.88832 47.7184 19.51744 71.12704 30.24896-28.81536-15.07328-55.97184-34.44736-87.7568-42.96704-1.8432-0.96256-3.64544-3.54304-0.7168-4.608 14.56128-8.8064 26.35776-21.4016 36.2496-35.1232z m307.13856 22.13888c6.69696 4.38272 13.66016 8.58112 19.0464 14.66368 12.86144 12.9024 20.00896 29.96224 30.55616 44.544 7.04512 8.4992 10.91584 18.96448 15.81056 28.75392 2.60096 4.87424 3.25632 11.01824 7.74144 14.68416l1.16736 4.3008c-0.9216-12.10368-4.79232-23.69536-6.90176-35.57376-0.9216-4.62848-1.3312-9.48224-3.6864-13.68064-6.49216-12.0832-13.9264-23.67488-22.1184-34.63168a21.11488 21.11488 0 0 0-5.67296-5.34528c-9.728-9.3184-21.87264-18.0224-35.9424-17.7152z m-235.4176 58.24512c5.36576 4.1984 12.24704 5.40672 18.3296 8.17152 30.37184 12.43136 60.7232 25.14944 92.40576 33.9968 3.85024 1.04448 7.65952 2.2528 11.40736 3.6864-0.24576 3.74784 1.024 8.02816-1.16736 11.40736-9.1136 4.608-19.2512 6.7584-29.04064 9.58464l-1.72032 1.72032c42.12736 0.8192 85.504 15.19616 115.22048 46.08 6.144 5.26336 10.17856 12.45184 16.26112 17.77664-4.34176-8.8064-9.6256-17.22368-12.88192-26.56256l1.78176 0.90112c-10.69056-22.528-15.19616-48.4352-31.80544-67.82976-2.1504-2.62144-4.77184-5.09952-8.25344-5.632-17.2032-4.28032-35.0208-4.93568-52.6336-5.38624-3.09248-4.01408-9.4208-1.06496-13.80352-2.68288-34.7136-8.31488-69.44768-16.5888-104.09984-25.23136z m251.2896 161.71008c-4.3008 4.608-5.38624 11.18208-6.88128 17.08032 4.7104-5.44768 10.11712-10.60864 16.896-13.39392 6.4512-2.78528 13.57824-2.82624 20.33664-4.42368a101.15072 101.15072 0 0 0-30.37184 0.73728z m-6.47168 51.4048c4.03456-0.32768 8.06912-0.79872 12.10368-1.39264 0.16384 5.9392 1.4336 11.71456 2.27328 17.57184a148.39808 148.39808 0 0 0-6.7584 5.5296c3.85024-1.18784 7.68-2.41664 11.55072-3.4816-0.65536-0.73728-2.00704-2.12992-2.6624-2.84672a5.20192 5.20192 0 0 0 4.89472-1.69984l-1.1264 4.38272c4.23936-1.59744 8.704-2.31424 13.2096-2.29376 9.15456 0.06144 18.20672-1.8432 27.38176-1.47456a40.05888 40.05888 0 0 0-13.06624-3.76832c0.79872-6.26688-0.8192-12.36992-2.37568-18.37056 2.31424-0.47104 4.62848-0.94208 6.92224-1.47456-17.44896-6.98368-37.82656-1.90464-52.34688 9.29792z m149.44256 31.70304c-5.7344 0.512-10.5472-2.94912-15.72864-4.64896 5.7344 8.0896 16.97792 11.18208 26.2144 7.84384 7.5776-2.70336 16.05632-5.81632 20.50048-12.98432-9.56416 5.18144-19.80416 10.15808-30.98624 9.78944z m-168.0384 75.20256c6.47168-4.75136 11.71456-11.81696 20.31616-12.73856-1.9456-3.50208-6.4512-2.23232-9.68704-2.43712-6.41024 2.048-9.29792 9.09312-10.62912 15.1552z" fill="#FEE83E" p-id="2809" data-spm-anchor-id="a313x.search_index.0.i1.189c3a81ffij2L"></path><path d="M855.53152 485.13024c9.35936-5.48864 19.90656-8.43776 30.3104-11.264 12.9024 47.616 36.08576 91.58656 60.6208 134.08256 9.05216 15.9744 19.80416 32.93184 37.2736 40.6528-1.49504 3.52256-2.72384 7.168-4.608 10.48576-30.9248-14.68416-58.73664-35.06176-86.28224-55.17312-27.72992-20.64384-44.2368-53.53472-49.50016-87.12192 3.76832-10.6496 7.63904-21.2992 12.1856-31.66208zM831.8976 594.3296c30.5152 35.34848 71.35232 62.2592 116.69504 74.0352 8.23296 2.2528 16.73216 3.2768 25.06752 5.03808a76.8 76.8 0 0 0-5.55008 30.14656c-9.6256-0.75776-18.8416-3.85024-28.20096-5.98016-37.4784-9.87136-75.3664-23.552-104.57088-49.95072-2.33472-17.65376-3.9936-35.45088-3.44064-53.28896z m15.7696 104.22272c40.91904 19.53792 85.21728 34.03776 130.9696 34.42688 5.03808 9.15456 10.9568 17.8176 16.71168 26.56256-15.79008 3.70688-32.4608 3.4816-48.68096 3.13344-17.75616-1.49504-35.75808-3.80928-52.59264-9.8304-12.14464-6.59456-23.51104-15.07328-31.744-26.29632-6.53312-8.37632-10.81344-18.16576-14.66368-27.99616z m214.91712 0.94208h38.27712c-0.08192 17.46944-0.02048 34.95936-0.06144 52.4288l3.97312 0.96256c0.08192-17.8176 0.12288-35.6352-0.02048-53.4528 12.86144 0.12288 25.74336 0.04096 38.6048 0.06144 0 48.47616 0.08192 96.93184-0.06144 145.38752-12.9024-0.12288-25.78432-0.02048-38.68672-0.06144 0.55296-19.00544-0.02048-38.05184 0.3072-57.05728l-3.9936 0.4096c-0.1024 18.82112-0.3072 37.66272 0.1024 56.48384-12.86144 0.26624-25.74336 0.3072-38.6048 0 0.45056-13.88544-0.12288-27.79136 0.32768-41.65632-17.92 5.12-35.90144 11.264-54.64064 13.0048a67.1744 67.1744 0 0 1-27.29984-1.29024c15.29856 1.6384 30.96576 0.88064 45.6704-3.7888 33.46432-10.48576 66.47808-22.3232 99.7376-33.3824-29.61408 1.39264-59.2896 3.80928-88.96512 2.06848-8.8064-0.8192-20.21376-2.08896-23.04-12.14464 13.39392 11.07968 32.11264 8.62208 48.29184 9.25696 0.16384-25.74336 0.04096-51.48672 0.08192-77.23008z m3.4816 3.66592c0 24.30976 0.04096 48.61952 0 72.94976 13.1072-0.55296 26.27584 0 39.36256-1.024 11.20256-0.24576 22.38464-1.55648 33.5872-0.88064 0.57344-2.43712 1.024-4.9152 0.94208-7.41376-0.1024-20.19328-0.06144-40.36608-0.04096-60.55936-9.4208 0.06144-18.8416-0.06144-28.2624 0.16384-0.12288 16.67072 0.06144 33.34144-0.12288 50.03264-0.28672-16.77312-0.04096-33.52576-0.08192-50.29888 9.46176-0.1024 18.92352-0.06144 28.38528-0.12288l0.16384-2.80576c-10.48576-0.12288-20.97152 0-31.4368-0.1024 0.04096 17.65376 0.06144 35.30752 0 52.9408a614.4 614.4 0 0 0-11.24352 0c-0.14336-17.6128-0.04096-35.26656-0.04096-52.89984h-31.19104z m42.496 83.70176c0.16384 18.2272-0.2048 36.43392 0.2048 54.64064 10.26048-0.38912 20.56192-0.2048 30.86336-0.12288 0.57344-21.99552 0.2048-43.99104 0.2048-65.96608-10.4448 3.85024-20.7872 7.80288-31.27296 11.4688z m-42.43456 14.41792c0.04096 13.37344-0.3072 26.76736 0.2048 40.12032 10.24-0.16384 20.48-0.16384 30.72 0 0.47104-16.9984 0.06144-33.95584 0.2048-50.95424-10.36288 3.62496-20.6848 7.3728-31.1296 10.83392z m83.3536-101.76512c12.3904 0 24.7808 0.08192 37.15072-0.02048 0.26624 48.4352-0.32768 96.89088 0.3072 145.32608-12.55424-0.04096-25.088 0.16384-37.60128-0.12288 0.38912-48.37376 0.08192-96.768 0.12288-145.18272z m3.584 3.64544c0.16384 46.08-0.22528 92.18048 0.2048 138.26048 9.89184-0.12288 19.7632-0.28672 29.65504 0.12288 0.28672-46.14144-0.02048-92.30336 0.16384-138.4448-10.01472 0.12288-20.00896 0.04096-30.02368 0.06144z m36.4544-3.80928c13.14816 0.32768 26.29632 0.06144 39.44448 0.14336 2.048 19.1488 5.46816 38.15424 8.15104 57.2416-1.92512 3.31776 3.56352 3.4816 1.8432 0.06144 4.096-18.98496 5.34528-38.46144 9.1136-57.48736 12.75904 0.32768 25.51808 0.24576 38.25664 0.04096-3.4816 25.27232-9.44128 50.176-13.7216 75.30496-4.17792 23.32672-9.33888 46.51008-12.73856 69.9392a988.9792 988.9792 0 0 1-43.88864 0.06144c-2.00704-17.5104-6.59456-34.6112-9.27744-51.99872-3.93216-19.41504-7.31136-38.93248-11.14112-58.38848-1.76128-11.6736-5.03808-23.1424-6.06208-34.9184z m3.7888 3.74784c8.92928 46.10048 16.9984 92.40576 26.39872 138.4448 12.24704-0.53248 24.51456-0.12288 36.78208-0.22528 8.6016-46.12096 17.3056-92.16 26.0096-138.26048-10.60864 0.16384-21.23776 0-31.8464 0.1024-2.2528 18.92352-5.48864 37.70368-7.9872 56.6272-0.55296 2.048-0.65536 4.99712-3.05152 5.81632-2.37568 1.45408-5.36576-1.37216-5.34528-3.85024-3.11296-19.51744-5.632-39.1168-8.8064-58.63424-10.73152 0-21.44256 0.08192-32.1536-0.02048z m97.44384-3.66592c23.49056 0 46.96064 0.26624 70.4512-0.14336-0.04096 13.63968 0.02048 27.27936-0.04096 40.89856-12.57472-0.34816-25.1904-0.14336-37.76512-0.12288 0.1024 3.64544 0.12288 7.29088 0.02048 10.93632 6.12352 0.14336 12.24704 0.12288 18.37056 0.12288 0 13.4144-0.04096 26.8288 0 40.28416-6.144-0.04096-12.26752 0-18.432-0.02048 0.2048 4.1984 0.2048 8.3968 0.06144 12.63616 12.61568 0.53248 25.23136 0 37.84704 0.55296-0.06144 13.47584-0.28672 26.95168 0.12288 40.448-23.59296-0.4096-47.18592-0.14336-70.77888-0.14336 0.47104-48.47616 0.2048-96.9728 0.14336-145.44896z m3.76832 3.66592c0.24576 46.14144-0.2048 92.30336 0.2048 138.4448 21.01248-0.49152 42.02496-0.2048 63.03744-0.14336a1246.3104 1246.3104 0 0 1 0.02048-32.9728c-12.5952-0.77824-25.1904-0.8192-37.82656-0.88064 0.08192-6.57408 0.08192-13.14816 0.04096-19.70176 5.8368-0.1024 11.6736-0.14336 17.55136 0.14336 1.2288-11.0592 0.24576-22.20032 0.55296-33.28-6.06208 0-12.12416 0.06144-18.20672-0.2048 0.16384-5.98016 0.16384-11.9808 0.04096-17.96096 12.61568-0.38912 25.27232 0.16384 37.888-0.3072-0.36864-11.0592 0.04096-22.15936-0.2048-33.23904-21.05344 0.3072-42.06592 0.1024-63.09888 0.1024z" fill="#FEE83E" p-id="2810"></path><path d="M927.29344 789.15584c26.78784-0.69632 54.94784 0.26624 79.68768-11.75552 3.76832 7.72096 11.20256 13.35296 13.35296 21.87264 1.00352 3.2768-0.73728 6.79936-3.29728 8.84736-16.7936 1.00352-33.87392 1.26976-50.25792-2.9696-13.7216-3.584-27.79136-7.63904-39.48544-15.9744z" fill="#FEE83E" p-id="2811"></path></svg>