<?xml version="1.0" standalone="no"?><!DOCTYPE svg PUBLIC "-//W3C//DTD SVG 1.1//EN" "http://www.w3.org/Graphics/SVG/1.1/DTD/svg11.dtd"><svg t="1737017004866" class="icon" viewBox="0 0 2048 1024" version="1.1" xmlns="http://www.w3.org/2000/svg" p-id="4044" xmlns:xlink="http://www.w3.org/1999/xlink" width="400" height="200"><path d="M1629.184 481.152c-1.248-2.688-1.824-4.032-2.496-5.312-18.176-34.528-36.256-69.056-54.592-103.488-1.856-3.456-1.6-5.536 0.896-8.48 28.896-33.728 57.6-67.616 86.4-101.472a8.96 8.96 0 0 0 2.304-4.512v-0.064c-8.416 2.208-16.832 4.352-25.216 6.592-34.912 9.248-69.824 18.464-104.672 27.84-3.264 0.864-4.736-0.096-6.336-2.784-19.84-33.12-39.744-66.144-59.648-99.2a13.44 13.44 0 0 0-4.288-4.768l-0.032-0.032c-1.6 8.832-3.232 17.632-4.768 26.464l-16.608 93.44c-0.608 3.36-1.44 6.72-1.728 10.112-0.288 3.2-1.92 4.384-4.832 5.312-41.12 12.896-82.208 25.952-123.296 38.976a13.28 13.28 0 0 0-5.504 3.072l101.344 40.288c-1.248 0.992-2.048 1.76-2.944 2.336-21.024 13.6-42.048 27.136-63.04 40.8-2.496 1.664-4.512 1.888-7.328 0.608-25.088-11.296-50.304-22.4-75.424-33.632-11.296-5.056-21.44-11.744-29.344-21.408-17.888-21.856-14.336-46.72 9.472-61.92 7.328-4.576 15.744-8.512 24.672-11.36l0.8-0.224c40.288-13.12 80.704-25.76 121.12-38.464 3.392-1.056 4.96-2.592 5.6-6.272 16.992-108.16 22.784-139.84 28.672-171.52l-12.096 78.08c3.008-16.64 4.608-33.728 12.704-48.992 3.104-5.856 6.848-11.616 11.264-16.544 16.032-17.792 38.432-18.496 55.392-1.536 5.728 5.728 10.656 12.48 14.912 19.424 18.688 30.464 37.088 61.152 55.36 91.84 2.144 3.616 4.128 4.352 8.096 3.296 45.088-12.096 90.176-23.968 135.296-35.904a63.36 63.36 0 0 1 28.256-1.568c20.8 3.904 29.888 19.712 22.848 39.808-3.2 9.152-8.736 16.864-14.944 24.16-31.488 37.024-62.912 74.08-94.496 111.008-2.56 3.008-2.624 5.184-0.832 8.576 18.848 35.52 37.504 71.104 56.256 106.688 4.48 8.512 7.904 17.344 8 27.136 0.224 22.24-16.032 40.416-38.144 43.68-12.352 1.824-23.872-0.832-35.456-4.416 53.76 13.44 25.472 4.608-2.848-4.096l-82.016-21.728c-2.624-0.8-3.616-1.824-4.096-4.64-3.264-19.936-6.816-39.84-10.24-59.712-0.096-0.576 0.064-1.152 0.16-2.368l97.472 26.88z" fill="#E25A1C" p-id="4045"></path><path d="M1574.08 771.424c-25.504-0.064-50.976-0.16-76.48-0.064-3.36 0-5.28-0.992-7.136-3.84-30.144-45.952-60.48-91.84-90.752-137.696-0.96-1.44-1.984-2.88-3.712-5.312l-19.296 146.592h-66.752c0.8-6.496 1.472-12.8 2.304-19.04l19.584-149.28c6.272-47.52 12.48-95.072 18.816-142.592a6.24 6.24 0 0 1 2.272-3.936c22.944-15.008 45.984-29.824 69.056-44.672 0.32-0.224 0.8-0.256 1.984-0.608l-20.8 158.656 0.832 0.544 109.216-121.088 2.912 16.704c2.592 15.104 5.088 30.24 7.84 45.312 0.544 3.04-0.256 4.928-2.272 7.04-23.36 24.48-46.656 49.024-69.984 73.536-1.024 1.056-1.984 2.176-3.136 3.456 0.736 1.184 1.376 2.304 2.112 3.392l120.64 169.248c0.736 1.024 1.792 1.824 2.688 2.72z m-791.04-146.688c-1.024-5.216-1.76-12.864-4.064-19.968-11.168-34.496-46.56-53.408-83.168-44.864-40.192 9.344-68.896 40.928-73.024 81.92-3.072 30.336 13.248 59.552 43.616 70.496 24.448 8.864 48 5.152 69.888-7.968 28.992-17.376 44.704-43.2 46.816-79.616z m-176.384 128.16l-5.728 42.816c3.36-34.24 0.8-15.168-1.696 3.936l-5.536 51.84c-0.288 2.176-0.928 3.136-3.264 3.104-18.336-0.096-36.672-0.064-55.008-0.096-0.416 0-0.832-0.224-1.824-0.512 1.12-8.768 2.176-17.568 3.328-26.4 4.064-30.848 8.064-61.696 12.192-92.544 4.672-35.264 8.416-70.688 14.432-105.728 10.656-62.048 63.296-115.52 125.056-128.832 35.808-7.744 70.08-4.16 101.344 16 31.168 20.096 49.056 49.28 53.12 85.952 5.76 51.872-13.344 94.912-50.176 130.528a155.648 155.648 0 0 1-86.528 43.264c-34.4 5.184-66.752-0.544-95.744-20.832-1.056-0.736-2.208-1.376-4.032-2.528z m-29.888-294.816l-60.288 44.864c-3.2-5.056-6.08-10.112-9.44-14.784-8.64-12.064-19.36-21.088-34.944-22.176a39.04 39.04 0 0 0-32.896 12.928 23.04 23.04 0 0 0-1.536 30.4c8.8 11.296 17.344 21.248 26.304 30.816l-0.224-0.224c15.072 16.32 30.784 32 45.76 48.416 13.6 14.912 24.448 31.68 27.808 52.064 4 24.256-0.864 47.392-12.32 68.672-21.248 39.456-54.688 62.368-98.816 69.536a129.632 129.632 0 0 1-57.984-3.072c-25.248-7.424-42.816-23.968-54.144-47.36-4-8.256-7.04-16.96-10.656-25.824l65.344-34.976c0.768 1.824 1.312 3.328 2.016 4.736 3.712 7.424 6.752 15.328 11.36 22.176 13.632 20.256 35.68 26.464 58.048 16.416 5.728-2.592 11.264-6.208 16-10.368 14.432-12.8 17.12-30.592 6.432-46.688-6.144-9.248-13.792-17.536-21.248-25.824-17.824-19.808-36.384-38.976-53.792-59.136a93.568 93.568 0 0 1-22.752-48.704 83.2 83.2 0 0 1 12.032-56.96l-0.192 0.352c26.272-42.528 64.48-64.64 115.04-62.816 28.8 1.024 51.744 14.496 69.536 36.896 5.28 6.624 10.208 13.504 15.616 20.672z m488.16 228.32c-3.36 25.632-6.528 49.952-9.792 74.304-0.16 1.248-1.152 2.912-2.208 3.424-49.728 23.04-115.232 19.808-156.096-26.592-21.92-24.928-31.136-54.496-29.792-87.424 3.168-76.192 66.336-142.688 141.888-151.968 44.128-5.44 82.816 6.464 112.736 40.768 20.384 23.36 29.792 51.264 28.384 82.016-0.896 20.32-4.096 40.544-6.624 60.8-3.584 28.672-7.488 57.28-11.296 85.92-0.128 0.992-0.32 2.016-0.576 3.296h-59.488c0.768-6.56 1.504-13.024 2.336-19.456 4.288-33.088 9.056-66.08 12.832-99.232 2.368-20.64 0.864-41.12-8.576-60.224-10.048-20.32-26.848-31.072-49.024-33.408-45.824-4.832-89.408 27.008-99.2 72.096-6.464 29.76 3.712 58.304 27.424 74.08 23.104 15.36 47.872 15.424 73.024 5.44 12.768-5.056 23.648-13.024 33.984-23.84z m250.56-182.496l-8.128 61.696c-12.576 0-24.928-0.096-37.248 0a23.52 23.52 0 0 0-22.144 15.872c-1.184 3.648-1.6 7.552-2.112 11.36-6.272 47.392-12.48 94.752-18.688 142.144l-4.672 36.032h-61.952l3.424-26.72 12.128-92.096c3.52-26.56 6.688-53.184 10.816-79.648 5.568-35.456 40.864-66.976 76.64-68.544 17.088-0.736 34.24-0.128 51.904-0.128zM659.712 414.112h15.36l-3.616-23.264z m17.792 15.008h-25.536l-8.128 15.904h-18.08l39.904-74.56h17.44l13.6 74.56h-16.768z m91.424-43.648h-9.088l-3.072 17.216h9.088c5.504 0 9.888-3.616 9.888-10.4 0-4.512-2.784-6.784-6.816-6.784z m-22.048-15.008h23.904c12.512 0 21.28 7.456 21.28 20.256 0 16.128-11.392 26.976-27.648 26.976h-10.304l-4.832 27.296h-15.552l13.152-74.56z m98.08 43.648h15.36l-3.616-23.264z m17.76 15.008h-25.536l-8.128 15.904h-18.08l39.904-74.56h17.44l13.6 74.56h-16.768z m100.992 13.248a40.192 40.192 0 0 1-16.864 3.84h-0.032c-19.744 0-32.128-14.784-32.128-33.344 0-23.68 19.968-43.648 43.648-43.648 5.92 0 11.296 1.408 15.68 3.84l-2.208 17.888a20.16 20.16 0 0 0-15.136-6.144c-13.6 0-25.664 12.288-25.664 26.528 0 10.848 6.784 19.328 17.536 19.328a28.16 28.16 0 0 0 17.216-6.016z m95.168-27.424h-32.48l-5.28 30.048h-15.552l13.152-74.56h15.584l-5.28 29.504h32.48l5.28-29.504h15.552l-13.152 74.56h-15.584z m57.12 30.08l13.152-74.56h41.344l-2.624 15.008h-25.76l-2.624 14.496h23.68l-2.624 15.008h-23.68l-2.624 15.04h25.76l-2.624 15.04z" fill="#3C3A3E" p-id="4046"></path></svg>